<svg xmlns="http://www.w3.org/2000/svg" width="159" height="159" viewBox="0 0 159 159">
  <defs>
    <linearGradient id="sqlite-a" x1="57.662%" x2="57.662%" y1="2.046%" y2="94.439%">
      <stop offset="0%" stop-color="#97D9F6"/>
      <stop offset="92.024%" stop-color="#0F80CC"/>
      <stop offset="100%" stop-color="#0F80CC"/>
    </linearGradient>
  </defs>
  <g fill="none" transform="translate(9)">
    <path fill="#0F80CC" d="M111.6315,7.03623 L12.1255,7.03623 C5.4565,7.03623 0,12.49373 0,19.16248 L0,128.89898 C0,135.56735 5.4565,141.02398 12.1255,141.02398 L77.66275,141.02398 C76.918884,108.41477 88.054499,45.130402 111.6315,7.03623 Z"/>
    <path fill="url(#sqlite-a)" d="M108.0165,10.57373 L12.1255,10.57373 C7.390125,10.57373 3.536625,14.42623 3.536625,19.16248 L3.536625,120.89261 C25.253875,112.55761 57.848835,105.36571 80.38621,105.69234 C84.91514,82.011439 98.22562,35.601916 108.0165,10.57373 Z"/>
    <path fill="#003B57" d="M134.8415,3.44498 C128.0265,-2.63252 119.77525,-0.19127 111.6315,7.03623 C110.42275,8.10998 109.2165,9.30123 108.0165,10.57373 C94.08525,25.35248 81.154,52.72748 77.1365,73.63373 C78.7015,76.80748 79.924,80.85748 80.729,83.95123 C80.93525,84.74498 81.1215,85.48998 81.27025,86.12373 C81.624,87.623605 81.814,88.59623 81.814,88.59623 C81.814,88.59623 81.689,88.123605 81.1765,86.63748 C81.079,86.35248 80.97025,86.04123 80.8415,85.67498 C80.7865,85.52373 80.71025,85.33998 80.6265,85.14373 C79.71775,83.03123 77.204,78.57248 76.09775,76.63123 C75.1515,79.42248 74.31525,82.03373 73.61525,84.39623 C76.809,90.23973 78.75525,100.25398 78.75525,100.25398 C78.75525,100.25398 78.5865,99.60498 77.784,97.33986 C77.0715,95.33648 73.52275,89.11873 72.682125,87.665105 C71.244125,92.97361 70.67275,96.55761 71.188,97.43023 C72.188375,99.12111 73.141125,102.03861 73.97775,105.26511 C75.86775,112.53373 77.1815,121.38236 77.1815,121.38236 C77.1815,121.38236 77.224,121.96873 77.29525,122.87111 C77.03275,128.97511 77.19025,135.30373 77.66275,141.02398 C78.289,148.59623 79.46775,155.10111 80.97025,158.58248 L81.99025,158.02636 C79.784,151.16748 78.88775,142.17873 79.28025,131.81248 C79.874,115.96736 83.52025,96.85886 90.25775,76.94248 C101.64025,46.87748 117.43275,22.75498 131.8865,11.23498 C118.71275,23.13248 100.88275,61.64373 95.54525,75.90498 C89.569,91.87498 85.334,106.86136 82.7815,121.21973 C87.18525,107.75886 101.424,101.97273 101.424,101.97273 C101.424,101.97273 108.40775,93.35986 116.569,81.05498 C111.68025,82.16998 103.65275,84.07873 100.964,85.20873 C96.99775,86.87248 95.929,87.43998 95.929,87.43998 C95.929,87.43998 108.7765,79.61623 119.799,76.07373 C134.95775,52.19873 151.47275,18.28123 134.8415,3.44498"/>
  </g>
</svg>
