<svg xmlns="http://www.w3.org/2000/svg" width="152" height="152" viewBox="0 0 152 152">
  <g fill="none" fill-rule="evenodd">
    <path fill="#FFF" fill-rule="nonzero" d="M151.6,28.4 C151.6,28.4 151.6,28.3 151.6,28.3 C151.6,9.7 113.5,1.42108547e-14 75.8,1.42108547e-14 C56.4,1.42108547e-14 38.1,2.5 24.2,7.1 C4.2,13.7 -5.68434189e-14,22.3 -5.68434189e-14,28.4 C-5.68434189e-14,28.4 -5.68434189e-14,28.4 -5.68434189e-14,28.4 L-5.68434189e-14,28.4 L-5.68434189e-14,60 L-5.68434189e-14,60 L-5.68434189e-14,91.6 L-5.68434189e-14,91.6 L-5.68434189e-14,123.2 L-5.68434189e-14,123.7 L-5.68434189e-14,123.8 C0.8,142 38.5,151.6 75.7,151.6 C95.1,151.6 113.4,149.1 127.3,144.5 C147.3,137.9 151.5,129.3 151.5,123.2 L151.5,91.7 C151.5,91.7 151.5,91.6 151.5,91.6 L151.5,60.1 C151.5,60.1 151.5,60 151.5,60 L151.6,28.4 Z M141.4,28.3 L141.4,28.3 C141.4,31.1 136.7,35.4 126.3,39.1 C126.4,39.2 126.4,39.3 126.5,39.4 C128.2,42.2 129.4,45.3 130.3,48.5 C130.4,48.5 130.4,48.5 130.5,48.4 C130.6,48.4 130.7,48.3 130.8,48.3 C131.1,48.2 131.3,48.1 131.6,48 C131.7,48 131.7,48 131.8,47.9 C132.4,47.7 133,47.4 133.6,47.2 C133.6,47.2 133.7,47.2 133.7,47.2 C134,47.1 134.2,47 134.5,46.9 C134.6,46.9 134.6,46.8 134.7,46.8 C134.9,46.7 135.1,46.6 135.3,46.5 C135.4,46.5 135.4,46.4 135.5,46.4 C135.7,46.3 135.9,46.2 136.1,46.1 C136.2,46.1 136.2,46 136.3,46 C136.8,45.7 137.4,45.5 137.9,45.2 C137.9,45.2 137.9,45.2 137.9,45.2 C138.1,45.1 138.4,45 138.6,44.8 C138.7,44.8 138.7,44.7 138.8,44.7 C139,44.6 139.2,44.5 139.4,44.4 C139.5,44.4 139.5,44.3 139.6,44.3 C139.8,44.2 140,44.1 140.1,44 C140.2,44 140.2,43.9 140.3,43.9 C140.5,43.8 140.7,43.7 140.9,43.5 C140.9,43.5 140.9,43.5 141,43.5 C141.2,43.4 141.4,43.2 141.7,43.1 L141.7,59.8 C141.7,59.9 141.7,59.9 141.7,60 C141.7,60 141.7,60.1 141.7,60.1 C141.7,60.2 141.7,60.2 141.7,60.3 C141.7,60.3 141.7,60.4 141.7,60.4 C141.7,60.5 141.7,60.5 141.6,60.6 C141.6,60.6 141.6,60.7 141.6,60.7 C141.6,60.8 141.5,60.8 141.5,60.9 C141.5,60.9 141.5,61 141.5,61 C141.5,61.1 141.4,61.2 141.4,61.2 C141.4,61.2 141.4,61.3 141.4,61.3 C141.4,61.4 141.3,61.5 141.3,61.5 C141.3,61.5 141.3,61.6 141.2,61.6 C141.2,61.7 141.1,61.8 141.1,61.8 C141.1,61.8 141.1,61.9 141,61.9 C140.9,62 140.9,62.1 140.8,62.1 C140.8,62.1 140.8,62.2 140.7,62.2 C140.6,62.3 140.6,62.4 140.5,62.5 C140.5,62.5 140.4,62.6 140.4,62.6 C140.3,62.7 140.3,62.8 140.2,62.9 C140.2,62.9 140.1,63 140.1,63 C140,63.1 139.9,63.2 139.9,63.3 C139.9,63.3 139.8,63.4 139.8,63.4 C139.7,63.5 139.6,63.6 139.5,63.7 C139.5,63.7 139.4,63.8 139.4,63.8 C139.3,63.9 139.2,64 139.1,64.1 C139.1,64.1 139,64.2 139,64.2 C138.9,64.3 138.8,64.4 138.7,64.5 C138.7,64.5 138.6,64.6 138.6,64.6 C138.5,64.7 138.4,64.8 138.2,64.9 C138.2,64.9 138.1,65 138.1,65 C138,65.1 137.8,65.2 137.7,65.3 C137.7,65.3 137.6,65.4 137.6,65.4 C137.5,65.5 137.3,65.6 137.2,65.7 C137.2,65.7 137.1,65.8 137.1,65.8 C137,65.9 136.8,66 136.6,66.1 C136.6,66.1 136.5,66.2 136.5,66.2 C136.3,66.3 136.2,66.4 136,66.5 C136,66.5 135.9,66.5 135.9,66.6 C135.7,66.7 135.5,66.8 135.4,66.9 C135.4,66.9 135.3,66.9 135.3,67 C135.1,67.1 134.9,67.2 134.7,67.3 C134.7,67.3 134.6,67.3 134.6,67.4 C134.4,67.5 134.2,67.6 134,67.7 C134,67.7 133.9,67.7 133.9,67.7 C133.7,67.8 133.4,67.9 133.2,68.1 C133.2,68.1 133.2,68.1 133.1,68.1 C132.9,68.2 132.6,68.3 132.3,68.5 C132.3,68.5 132.3,68.5 132.3,68.5 C132.2,68.5 132.1,68.6 132,68.6 L132,79.6 C132,79.6 132,79.6 132,79.7 C132,79.7 132,79.7 132.1,79.7 C132.7,79.5 133.3,79.2 133.9,79 C133.9,79 134,79 134,79 C134.3,78.9 134.5,78.8 134.8,78.7 C134.9,78.7 134.9,78.6 135,78.6 C135.2,78.5 135.4,78.4 135.6,78.3 C135.7,78.3 135.7,78.2 135.8,78.2 C136,78.1 136.2,78 136.4,77.9 C136.5,77.9 136.5,77.8 136.6,77.8 C137.1,77.5 137.7,77.3 138.2,77 C138.2,77 138.2,77 138.2,77 C138.4,76.9 138.7,76.8 138.9,76.6 C139,76.6 139,76.5 139.1,76.5 C139.3,76.4 139.5,76.3 139.7,76.2 C139.8,76.2 139.8,76.1 139.9,76.1 C140.1,76 140.3,75.9 140.4,75.8 C140.5,75.8 140.5,75.7 140.6,75.7 C140.8,75.6 141,75.5 141.2,75.3 C141.2,75.3 141.2,75.3 141.3,75.3 C141.5,75.2 141.7,75 142,74.9 L142,91.6 C142,91.7 142,91.7 142,91.8 C142,91.8 142,91.9 142,91.9 C142,92 142,92 142,92.1 C142,92.1 142,92.2 142,92.2 C142,92.3 142,92.3 141.9,92.4 C141.9,92.4 141.9,92.5 141.9,92.5 C141.9,92.6 141.8,92.7 141.8,92.7 C141.8,92.7 141.8,92.8 141.8,92.8 C141.8,92.9 141.7,93 141.7,93 C141.7,93 141.7,93.1 141.7,93.1 C141.7,93.2 141.6,93.3 141.6,93.3 C141.6,93.3 141.6,93.4 141.6,93.4 C141.6,93.5 141.5,93.6 141.4,93.7 C141.4,93.7 141.4,93.8 141.3,93.8 C141.2,93.9 141.2,94 141.1,94.1 C141.1,94.1 141.1,94.2 141,94.2 C140.9,94.3 140.9,94.4 140.8,94.5 C140.8,94.5 140.8,94.6 140.7,94.6 C140.6,94.7 140.5,94.8 140.5,94.9 C140.5,94.9 140.5,95 140.4,95 C140.3,95.1 140.2,95.2 140.1,95.3 C140.1,95.3 140,95.4 140,95.4 C139.9,95.5 139.8,95.6 139.7,95.7 C139.7,95.7 139.6,95.8 139.6,95.8 C139.5,95.9 139.4,96 139.3,96.1 C139.3,96.1 139.2,96.2 139.2,96.2 C139.1,96.3 139,96.4 138.9,96.5 C138.9,96.5 138.8,96.6 138.8,96.6 C138.7,96.7 138.6,96.8 138.4,96.9 C138.4,96.9 138.3,97 138.3,97 C138.2,97.1 138,97.2 137.9,97.3 C137.9,97.3 137.8,97.4 137.8,97.4 C137.7,97.5 137.5,97.6 137.4,97.7 C137.4,97.7 137.3,97.8 137.3,97.8 C137.2,97.9 137,98 136.9,98.1 C136.9,98.1 136.8,98.2 136.8,98.2 C136.6,98.3 136.5,98.4 136.3,98.5 C136.3,98.5 136.2,98.6 136.2,98.6 C136,98.7 135.9,98.8 135.7,98.9 C135.7,98.9 135.6,99 135.6,99 C135.4,99.1 135.2,99.2 135.1,99.3 C135.1,99.3 135,99.4 135,99.4 C134.8,99.5 134.6,99.6 134.4,99.7 C134.4,99.7 134.3,99.8 134.3,99.8 C134.1,99.9 133.9,100 133.7,100.1 C133.7,100.1 133.6,100.1 133.6,100.2 C133.4,100.3 133.2,100.4 132.9,100.5 C132.9,100.5 132.8,100.5 132.8,100.6 C132.6,100.7 132.3,100.8 132.1,100.9 C132.1,100.9 132,100.9 132,100.9 C131.7,101 131.5,101.1 131.2,101.3 C131.2,101.3 131.2,101.3 131.2,101.3 C129.4,102.1 127.4,102.8 125.2,103.6 C124,104 122.8,104.4 121.5,104.7 C118.1,106.8 113.9,108 109.3,108 L106.4,108.1 L106.4,118.3 C111.8,117.5 116.8,116.5 121.5,115.3 C121.5,115.3 121.6,115.3 121.6,115.3 C122,115.2 122.5,115.1 122.9,114.9 C124.8,114.4 126.6,113.9 128.3,113.3 C128.7,113.2 129,113.1 129.3,113 C129.4,113 129.5,112.9 129.5,112.9 C129.8,112.8 130,112.7 130.3,112.6 C130.4,112.6 130.5,112.5 130.6,112.5 C130.8,112.4 131.1,112.3 131.3,112.2 C131.4,112.2 131.5,112.1 131.6,112.1 C131.8,112 132.1,111.9 132.3,111.8 C132.4,111.8 132.4,111.7 132.5,111.7 C133.1,111.5 133.7,111.2 134.3,111 C134.3,111 134.4,111 134.4,111 C134.7,110.9 134.9,110.8 135.2,110.7 C135.3,110.7 135.3,110.6 135.4,110.6 C135.6,110.5 135.8,110.4 136.1,110.3 C136.2,110.3 136.2,110.2 136.3,110.2 C136.5,110.1 136.7,110 137,109.9 C137,109.9 137.1,109.9 137.1,109.8 C137.9,109.4 138.7,109 139.4,108.6 C139.4,108.6 139.5,108.6 139.5,108.5 C139.7,108.4 139.9,108.3 140.1,108.2 C140.1,108.2 140.2,108.1 140.2,108.1 C140.4,108 140.6,107.9 140.8,107.8 C140.8,107.8 140.9,107.8 140.9,107.7 C141.4,107.4 141.8,107.2 142.2,106.9 L142.2,123.6 C142.1,126.6 136.8,131.2 125,135.1 C112.2,139.3 95,141.6 76.6,141.6 C58.3,141.6 41.1,139.3 28.2,135.1 C16.3,131.2 11,126.5 11,123.5 L11,123 L11,106.8 C11,106.8 11.1,106.8 11.1,106.9 C11.5,107.1 11.8,107.4 12.2,107.6 C12.3,107.7 12.5,107.8 12.6,107.8 C12.9,108 13.2,108.1 13.4,108.3 C13.6,108.4 13.7,108.5 13.9,108.6 C14.2,108.8 14.5,108.9 14.9,109.1 C15,109.2 15.1,109.2 15.3,109.3 C15.7,109.5 16.1,109.7 16.5,109.9 C16.7,110 16.9,110.1 17,110.1 C17.3,110.2 17.6,110.4 17.9,110.5 C18.1,110.6 18.3,110.7 18.4,110.7 C18.8,110.9 19.3,111.1 19.8,111.3 C20,111.4 20.1,111.4 20.3,111.5 C20.6,111.6 21,111.8 21.3,111.9 C21.5,112 21.7,112.1 21.9,112.1 C22.2,112.2 22.6,112.3 22.9,112.5 C23.1,112.6 23.3,112.6 23.4,112.7 C23.9,112.9 24.4,113 24.9,113.2 C25.1,113.3 25.3,113.3 25.5,113.4 C25.8,113.5 26.2,113.6 26.6,113.7 C26.7,113.7 26.9,113.8 27,113.8 C26.5,113.1 26.1,112.3 25.6,111.6 C23.8,108.4 22.4,104.8 21.6,101 C14.2,97.7 10.8,94.2 10.8,91.9 L10.8,91.4 L10.8,75.2 C10.8,75.2 10.9,75.2 10.9,75.3 C11.3,75.6 11.7,75.8 12.1,76 C12.1,76 12.1,76 12.2,76 C12.6,76.2 13,76.5 13.4,76.7 C13.5,76.8 13.6,76.8 13.7,76.9 C14.1,77.1 14.5,77.3 14.9,77.5 C15,77.5 15,77.6 15.1,77.6 C15.6,77.8 16,78.1 16.5,78.3 C16.6,78.3 16.7,78.4 16.8,78.4 C17.2,78.6 17.6,78.8 18,78.9 C18.1,78.9 18.2,79 18.3,79 C19,79.3 19.8,79.6 20.6,79.9 L20.6,68.8 C13.9,65.6 10.8,62.4 10.8,60.1 L10.8,59.5 L10.8,43.5 C10.9,43.6 11,43.6 11,43.6 C11.3,43.8 11.6,44 11.9,44.1 C12,44.2 12.2,44.3 12.3,44.3 C12.7,44.5 13,44.7 13.4,44.9 C13.5,44.9 13.5,45 13.6,45 C14,45.2 14.4,45.4 14.9,45.7 C15,45.8 15.2,45.8 15.3,45.9 C15.6,46.1 15.9,46.2 16.3,46.4 C16.4,46.5 16.6,46.5 16.7,46.6 C17.2,46.8 17.6,47 18.1,47.2 C18.2,47.2 18.3,47.3 18.4,47.3 C18.8,47.5 19.2,47.6 19.6,47.8 C19.8,47.9 19.9,47.9 20.1,48 C20.5,48.1 20.8,48.3 21.2,48.4 C21.3,48.5 21.5,48.5 21.6,48.6 C22.1,48.8 22.6,49 23.1,49.2 C23.1,49.2 23.1,49.2 23.1,49.2 C23.9,46.9 24.9,44.6 26.1,42.5 C26.6,41.6 27.1,40.8 27.7,40 C16,36.1 10.7,31.4 10.7,28.5 C10.7,25.6 16,20.8 27.9,16.9 C40.7,12.7 57.9,10.4 76.3,10.4 C94.6,10.4 111.8,12.7 124.7,16.9 C136.1,20.6 141.4,25.3 141.4,28.3 C141.4,28.2 141.4,28.2 141.4,28.3 Z"/>
    <path fill="#FFF" fill-rule="nonzero" d="M121.4,42.4 C118.5,37.6 114.5,33.9 109.3,31.2 C104.1,28.6 97.9,27.3 90.9,27.3 L65.6,27.3 C57.6,27.3 50.6,28.8 44.7,31.9 C38.7,35 34.2,39.4 30.9,45.2 C27.7,50.9 26.1,57.6 26.1,65.3 L26.1,90.7 C26.1,97.4 27.5,103.3 30.4,108.4 C33.3,113.5 37.3,117.3 42.6,120.1 C47.9,122.8 54.1,124.2 61.3,124.2 L99.6,124.2 L99.6,114 L61.3,114 C54,114 48.2,111.9 43.8,107.7 C39.5,103.5 37.3,97.9 37.3,90.8 L37.3,65.4 C37.3,56.9 39.9,50.1 45,45.1 C50.1,40 57,37.5 65.7,37.5 L90.9,37.5 C98.1,37.5 103.9,39.5 108.2,43.4 C112.5,47.3 114.7,52.6 114.7,59.3 L114.7,80.3 C114.7,84 114.1,86.9 113,88.9 C111.9,90.9 110.2,91.9 108.1,91.9 L104.8,91.9 C102.9,91.9 101.5,91.2 100.5,89.9 C99.5,88.6 99,86.9 99,84.7 L99,50.4 L89,50.4 L89,55.5 C87.7,53.7 85.9,52.3 83.8,51.2 C81.7,50.1 79.6,49.6 77.4,49.6 L71.4,49.6 C65,49.6 59.9,51.6 56.1,55.5 C52.3,59.5 50.4,64.7 50.4,71.4 L50.4,82.4 C50.4,88.6 52.2,93.6 55.8,97.3 C59.4,101 64.1,102.8 70,102.8 L76.5,102.8 C79.5,102.8 82.4,101.9 85.2,100.2 C88.1,98.5 90.3,96.3 92,93.4 L92.1,93.4 C93.3,95.9 95,97.8 97.1,99.3 C99.3,100.7 101.6,101.5 104,101.5 L108.1,101.5 C113.6,101.5 117.9,99.6 120.9,95.8 C123.9,92 125.4,86.6 125.4,79.6 L125.4,59.2 C125.7,52.8 124.2,47.2 121.4,42.4 Z M88,80.6 C87.7,84.4 86.5,87.5 84.4,89.8 C82.4,92.1 79.8,93.2 76.6,93.2 L70.2,93.2 C67.6,93.2 65.4,92.2 63.8,90.2 C62.2,88.2 61.4,85.5 61.4,82.1 L61.4,71.5 C61.4,67.8 62.4,64.8 64.3,62.5 C66.2,60.3 68.9,59.1 72.1,59.1 L78.1,59.1 C80.8,59.1 83.1,60 84.9,61.8 C86.7,63.6 87.7,66.1 88,69.1 L88,80.6 L88,80.6 Z"/>
  </g>
</svg>
