<svg xmlns="http://www.w3.org/2000/svg" width="1440" height="984" viewBox="0 0 1440 984">
  <defs>
    <linearGradient id="readme-a" x1="57.662%" x2="57.662%" y1="2.046%" y2="94.439%">
      <stop offset="0%" stop-color="#97D9F6"/>
      <stop offset="92.024%" stop-color="#0F80CC"/>
      <stop offset="100%" stop-color="#0F80CC"/>
    </linearGradient>
  </defs>
  <g fill="none" fill-rule="evenodd">
    <rect width="1440" height="984" fill="#FFF"/>
    <path fill="#FA2B3A" fill-rule="nonzero" d="M6.9 86.7C2.5 82.1.3 75.9.3 68.3L.3 52.8C.3 47.5 1.4 42.9 3.5 38.8 5.6 34.7 8.6 31.6 12.4 29.3 16.2 27.1 20.6 25.9 25.6 25.9L34.5 25.9C37.3 25.9 40.1 26.6 42.8 27.9 45.5 29.2 47.7 31 49.4 33.2L49.4.6 61.8.6 61.8 92.7 50 92.7 50 83.4C48.1 86.5 45.5 89 42.4 90.9 39.2 92.8 36.1 93.8 32.9 93.8L24.3 93.8C17.2 93.7 11.4 91.3 6.9 86.7zM33.4 82.9C37.5 82.9 41.1 81.2 44.2 77.8 47.3 74.4 49 70.4 49.3 65.8L49.3 50.9C48.7 46.6 47.1 43.2 44.5 40.6 41.9 38 38.8 36.7 35.2 36.7L26.4 36.7C22.3 36.7 18.9 38.2 16.3 41.2 13.7 44.2 12.4 48.2 12.4 53.2L12.4 67.8C12.4 72.3 13.6 75.9 16 78.7 18.4 81.5 21.5 82.8 25.1 82.8L33.4 82.8 33.4 82.9zM126.9 31.8C122.7 27.9 117.1 26 110.2 26L99.4 26C92.5 26 86.9 27.8 82.6 31.3 78.3 34.8 76.2 39.4 76.2 45.1L88.3 45.1C88.3 42.5 89.3 40.5 91.3 38.9 93.3 37.3 96 36.5 99.3 36.5L110.1 36.5C113.4 36.5 116 37.5 118 39.5 120 41.5 121 44.1 121 47.3L121 52.4 96.7 52.4C90 52.4 84.6 54.1 80.5 57.5 76.4 60.9 74.3 65.3 74.3 70.9L74.3 75.2C74.3 80.8 76.3 85.3 80.2 88.7 84.1 92.1 89.4 93.8 96 93.8L103.9 93.8C107.2 93.8 110.5 92.9 113.8 91.1 117 89.3 119.7 86.9 121.7 83.9L121.7 92.7 133.1 92.7 133.1 47.3C133.2 40.8 131.1 35.7 126.9 31.8zM114.9 80.2C111.9 82.4 108.5 83.5 104.6 83.5L96.8 83.5C93.6 83.5 91.1 82.7 89.2 81.2 87.3 79.7 86.4 77.6 86.4 75L86.4 71C86.4 68.4 87.4 66.3 89.3 64.7 91.2 63.1 93.7 62.3 96.8 62.3L121 62.3 121 71.1C119.9 74.9 117.9 77.9 114.9 80.2zM158.3 87.9C155.1 84.7 153.5 79.7 153.5 72.6L153.5 37.6 141.9 37.6 141.9 27 153.6 27 153.6 7.1 165.7 7.1 165.7 27 182.8 27 182.8 37.7 165.7 37.7 165.7 72.4C165.7 75.8 166.4 78.3 167.7 79.8 169.1 81.3 171.3 82 174.3 82L182.7 82 182.7 92.7 173.8 92.7C166.7 92.6 161.5 91 158.3 87.9zM283 91C279.9 89.2 277.5 86.9 275.8 84.2L275.8 92.6 264.1 92.6 264.1.5 276.3.5 276.3 33.8C278.2 31.4 280.6 29.5 283.5 28.1 286.4 26.7 289.3 25.9 292.2 25.9L301.5 25.9C306.1 25.9 310.3 27 313.9 29.1 317.5 31.2 320.4 34.1 322.4 37.9 324.4 41.7 325.4 46.1 325.4 51.1L325.4 67.4C325.4 72.6 324.4 77.2 322.3 81.2 320.2 85.2 317.4 88.3 313.7 90.5 310 92.7 305.8 93.8 300.9 93.8L292 93.8C289.1 93.7 286.1 92.8 283 91zM300.3 82.9C304.2 82.9 307.3 81.4 309.6 78.5 312 75.6 313.2 71.7 313.2 66.9L313.2 51.5C313.2 47.1 312 43.6 309.7 40.8 307.4 38.1 304.4 36.7 300.7 36.7L292.1 36.7C287.9 36.7 284.3 38.2 281.3 41.3 278.3 44.4 276.7 48.4 276.3 53.3L276.3 67.8C276.6 72 278.3 75.6 281.3 78.5 284.3 81.4 287.7 82.9 291.4 82.9L300.3 82.9zM411.5 87.8C407.2 83.9 405.1 78.7 405.1 72.3L417.1 72.3C417.1 75.5 418.2 78.2 420.3 80.2 422.4 82.2 425.2 83.2 428.7 83.2L440.3 83.2C443.6 83.2 446.3 82.6 448.3 81.3 450.3 80 451.3 78.3 451.3 76.2L451.3 72.4C451.3 71 450.7 69.7 449.5 68.7 448.3 67.6 446.8 66.9 445 66.5L422.2 62.6C417.4 61.7 413.5 59.9 410.6 57.1 407.7 54.3 406.3 51.1 406.3 47.4L406.3 43.1C406.3 37.9 408.4 33.8 412.5 30.6 416.6 27.4 422.1 25.9 429.1 25.9L440.2 25.9C446.8 25.9 452.1 27.7 456.1 31.3 460.1 34.9 462.1 39.7 462.1 45.6L450.1 45.6C450 42.8 449.1 40.5 447.3 38.8 445.5 37.1 443.2 36.2 440.3 36.2L429.4 36.2C426.2 36.2 423.6 36.9 421.7 38.2 419.8 39.5 418.9 41.3 418.9 43.5L418.9 46.8C418.9 48.2 419.5 49.4 420.7 50.5 421.9 51.6 423.5 52.3 425.4 52.7L448.4 56.8C453 57.6 456.7 59.3 459.5 62.1 462.3 64.8 463.8 68 463.8 71.6L463.8 76.7C463.8 81.8 461.6 85.9 457.4 89 453.1 92.1 447.4 93.7 440.4 93.7L428.8 93.7C421.5 93.7 415.8 91.7 411.5 87.8zM480.7 87C476 82.6 473.7 76.8 473.7 69.6L473.7 51.4C473.7 43.7 476 37.5 480.7 32.8 485.4 28.2 491.6 25.8 499.3 25.8L510.1 25.8C517.6 25.8 523.6 28.1 528.1 32.6 532.7 37.2 534.9 43.2 534.9 50.8L534.9 63.2 485.8 63.2 485.8 69.5C485.8 73.5 487 76.8 489.5 79.2 492 81.7 495.2 82.9 499.2 82.9L509.3 82.9C513.2 82.9 516.4 81.9 518.9 79.8 521.4 77.7 522.6 75 522.6 71.6L534.6 71.6C534.6 78.2 532.3 83.5 527.6 87.5 522.9 91.5 516.8 93.6 509.2 93.6L499.2 93.6C491.6 93.7 485.4 91.5 480.7 87zM522.7 53.5L522.7 50.9C522.7 46.5 521.5 43 519.2 40.4 516.9 37.8 513.8 36.5 510.1 36.5L499.3 36.5C495.3 36.5 492 37.9 489.6 40.6 487.2 43.3 485.9 47 485.9 51.6L485.9 53.6 522.7 53.6 522.7 53.5zM551.4 87.8C547.1 83.9 545 78.7 545 72.3L557 72.3C557 75.5 558.1 78.2 560.2 80.2 562.3 82.2 565.1 83.2 568.6 83.2L580.2 83.2C583.5 83.2 586.2 82.6 588.2 81.3 590.2 80 591.2 78.3 591.2 76.2L591.2 72.4C591.2 71 590.6 69.7 589.4 68.7 588.2 67.6 586.7 66.9 584.9 66.5L562.1 62.6C557.3 61.7 553.4 59.9 550.5 57.1 547.6 54.3 546.2 51.1 546.2 47.4L546.2 43.1C546.2 37.9 548.3 33.8 552.4 30.6 556.5 27.4 562 25.9 569 25.9L580.1 25.9C586.7 25.9 592 27.7 596 31.3 600 34.9 602 39.7 602 45.6L590 45.6C589.9 42.8 589 40.5 587.2 38.8 585.4 37.1 583.1 36.2 580.2 36.2L569 36.2C565.8 36.2 563.2 36.9 561.3 38.2 559.4 39.5 558.5 41.3 558.5 43.5L558.5 46.8C558.5 48.2 559.1 49.4 560.3 50.5 561.5 51.6 563.1 52.3 565 52.7L588 56.8C592.6 57.6 596.3 59.3 599.1 62.1 601.9 64.8 603.4 68 603.4 71.6L603.4 76.7C603.4 81.8 601.2 85.9 597 89 592.7 92.1 587 93.7 580 93.7L568.4 93.7C561.4 93.7 555.7 91.7 551.4 87.8zM243.8 31.8C239.6 27.9 234 26 227.1 26L216.3 26C209.4 26 203.8 27.8 199.5 31.3 195.2 34.8 193.1 39.4 193.1 45.1L205.2 45.1C205.2 42.5 206.2 40.5 208.2 38.9 210.2 37.3 212.9 36.5 216.2 36.5L227 36.5C230.3 36.5 232.9 37.5 234.9 39.5 236.9 41.5 237.9 44.1 237.9 47.3L237.9 52.4 213.6 52.4C206.9 52.4 201.5 54.1 197.4 57.5 193.3 60.9 191.2 65.3 191.2 70.9L191.2 75.2C191.2 80.8 193.2 85.3 197.1 88.7 201 92.1 206.3 93.8 212.9 93.8L220.8 93.8C224.1 93.8 227.4 92.9 230.7 91.1 233.9 89.3 236.6 86.9 238.6 83.9L238.6 92.7 250 92.7 250 47.3C250.1 40.8 248 35.7 243.8 31.8zM231.8 80.2C228.8 82.4 225.4 83.5 221.5 83.5L213.7 83.5C210.5 83.5 208 82.7 206.1 81.2 204.2 79.7 203.3 77.6 203.3 75L203.3 71C203.3 68.4 204.3 66.3 206.2 64.7 208.1 63.1 210.6 62.3 213.7 62.3L238 62.3 238 71.1C236.8 74.9 234.8 77.9 231.8 80.2zM388.1 31.8C383.9 27.9 378.3 26 371.4 26L360.6 26C353.7 26 348.1 27.8 343.8 31.3 339.5 34.8 337.4 39.4 337.4 45.1L349.5 45.1C349.5 42.5 350.5 40.5 352.5 38.9 354.5 37.3 357.2 36.5 360.5 36.5L371.3 36.5C374.6 36.5 377.2 37.5 379.2 39.5 381.2 41.5 382.2 44.1 382.2 47.3L382.2 52.4 357.9 52.4C351.2 52.4 345.8 54.1 341.7 57.5 337.6 60.9 335.5 65.3 335.5 70.9L335.5 75.2C335.5 80.8 337.5 85.3 341.4 88.7 345.3 92.1 350.6 93.8 357.2 93.8L365.1 93.8C368.4 93.8 371.7 92.9 375 91.1 378.2 89.3 380.9 86.9 382.9 83.9L382.9 92.7 394.3 92.7 394.3 47.3C394.4 40.8 392.3 35.7 388.1 31.8zM376.1 80.2C373.1 82.4 369.7 83.5 365.8 83.5L358 83.5C354.8 83.5 352.3 82.7 350.4 81.2 348.5 79.7 347.6 77.6 347.6 75L347.6 71C347.6 68.4 348.6 66.3 350.5 64.7 352.4 63.1 354.9 62.3 358 62.3L382.2 62.3 382.2 71.1C381.1 74.9 379.1 77.9 376.1 80.2z" transform="translate(504 215)"/>
    <g fill="#FA2B3A" fill-rule="nonzero" transform="translate(332 194)">
      <path d="M152,28.7 C152,28.7 152,28.6 152,28.6 C152,10 113.9,0.3 76.2,0.3 C56.8,0.3 38.5,2.8 24.6,7.4 C4.6,14 0.4,22.6 0.4,28.7 C0.4,28.7 0.4,28.7 0.4,28.7 L0.4,28.7 L0.4,60.3 L0.4,60.3 L0.4,91.9 L0.4,91.9 L0.4,123.5 L0.4,124 L0.4,124.1 C1.2,142.3 38.9,151.9 76.1,151.9 C95.5,151.9 113.8,149.4 127.7,144.8 C147.7,138.2 151.9,129.6 151.9,123.5 L151.9,92 C151.9,92 151.9,91.9 151.9,91.9 L151.9,60.4 C151.9,60.4 151.9,60.3 151.9,60.3 L152,28.7 Z M141.8,28.6 L141.8,28.6 C141.8,31.4 137.1,35.7 126.7,39.4 C126.8,39.5 126.8,39.6 126.9,39.7 C128.6,42.5 129.8,45.6 130.7,48.8 C130.8,48.8 130.8,48.8 130.9,48.7 C131,48.7 131.1,48.6 131.2,48.6 C131.5,48.5 131.7,48.4 132,48.3 C132.1,48.3 132.1,48.3 132.2,48.2 C132.8,48 133.4,47.7 134,47.5 C134,47.5 134.1,47.5 134.1,47.5 C134.4,47.4 134.6,47.3 134.9,47.2 C135,47.2 135,47.1 135.1,47.1 C135.3,47 135.5,46.9 135.7,46.8 C135.8,46.8 135.8,46.7 135.9,46.7 C136.1,46.6 136.3,46.5 136.5,46.4 C136.6,46.4 136.6,46.3 136.7,46.3 C137.2,46 137.8,45.8 138.3,45.5 C138.3,45.5 138.3,45.5 138.3,45.5 C138.5,45.4 138.8,45.3 139,45.1 C139.1,45.1 139.1,45 139.2,45 C139.4,44.9 139.6,44.8 139.8,44.7 C139.9,44.7 139.9,44.6 140,44.6 C140.2,44.5 140.4,44.4 140.5,44.3 C140.6,44.3 140.6,44.2 140.7,44.2 C140.9,44.1 141.1,44 141.3,43.8 C141.3,43.8 141.3,43.8 141.4,43.8 C141.6,43.7 141.8,43.5 142.1,43.4 L142.1,60.1 C142.1,60.2 142.1,60.2 142.1,60.3 C142.1,60.3 142.1,60.4 142.1,60.4 C142.1,60.5 142.1,60.5 142.1,60.6 C142.1,60.6 142.1,60.7 142.1,60.7 C142.1,60.8 142.1,60.8 142,60.9 C142,60.9 142,61 142,61 C142,61.1 141.9,61.1 141.9,61.2 C141.9,61.2 141.9,61.3 141.9,61.3 C141.9,61.4 141.8,61.5 141.8,61.5 C141.8,61.5 141.8,61.6 141.8,61.6 C141.8,61.7 141.7,61.8 141.7,61.8 C141.7,61.8 141.7,61.9 141.6,61.9 C141.6,62 141.5,62.1 141.5,62.1 C141.5,62.1 141.5,62.2 141.4,62.2 C141.3,62.3 141.3,62.4 141.2,62.4 C141.2,62.4 141.2,62.5 141.1,62.5 C141,62.6 141,62.7 140.9,62.8 C140.9,62.8 140.8,62.9 140.8,62.9 C140.7,63 140.7,63.1 140.6,63.2 C140.6,63.2 140.5,63.3 140.5,63.3 C140.4,63.4 140.3,63.5 140.3,63.6 C140.3,63.6 140.2,63.7 140.2,63.7 C140.1,63.8 140,63.9 139.9,64 C139.9,64 139.8,64.1 139.8,64.1 C139.7,64.2 139.6,64.3 139.5,64.4 C139.5,64.4 139.4,64.5 139.4,64.5 C139.3,64.6 139.2,64.7 139.1,64.8 C139.1,64.8 139,64.9 139,64.9 C138.9,65 138.8,65.1 138.6,65.2 C138.6,65.2 138.5,65.3 138.5,65.3 C138.4,65.4 138.2,65.5 138.1,65.6 C138.1,65.6 138,65.7 138,65.7 C137.9,65.8 137.7,65.9 137.6,66 C137.6,66 137.5,66.1 137.5,66.1 C137.4,66.2 137.2,66.3 137,66.4 C137,66.4 136.9,66.5 136.9,66.5 C136.7,66.6 136.6,66.7 136.4,66.8 C136.4,66.8 136.3,66.8 136.3,66.9 C136.1,67 135.9,67.1 135.8,67.2 C135.8,67.2 135.7,67.2 135.7,67.3 C135.5,67.4 135.3,67.5 135.1,67.6 C135.1,67.6 135,67.6 135,67.7 C134.8,67.8 134.6,67.9 134.4,68 C134.4,68 134.3,68 134.3,68 C134.1,68.1 133.8,68.2 133.6,68.4 C133.6,68.4 133.6,68.4 133.5,68.4 C133.3,68.5 133,68.6 132.7,68.8 C132.7,68.8 132.7,68.8 132.7,68.8 C132.6,68.8 132.5,68.9 132.4,68.9 L132.4,79.9 C132.4,79.9 132.4,79.9 132.4,80 C132.4,80 132.4,80 132.5,80 C133.1,79.8 133.7,79.5 134.3,79.3 C134.3,79.3 134.4,79.3 134.4,79.3 C134.7,79.2 134.9,79.1 135.2,79 C135.3,79 135.3,78.9 135.4,78.9 C135.6,78.8 135.8,78.7 136,78.6 C136.1,78.6 136.1,78.5 136.2,78.5 C136.4,78.4 136.6,78.3 136.8,78.2 C136.9,78.2 136.9,78.1 137,78.1 C137.5,77.8 138.1,77.6 138.6,77.3 C138.6,77.3 138.6,77.3 138.6,77.3 C138.8,77.2 139.1,77.1 139.3,76.9 C139.4,76.9 139.4,76.8 139.5,76.8 C139.7,76.7 139.9,76.6 140.1,76.5 C140.2,76.5 140.2,76.4 140.3,76.4 C140.5,76.3 140.7,76.2 140.8,76.1 C140.9,76.1 140.9,76 141,76 C141.2,75.9 141.4,75.8 141.6,75.6 C141.6,75.6 141.6,75.6 141.7,75.6 C141.9,75.5 142.1,75.3 142.4,75.2 L142.4,91.9 C142.4,92 142.4,92 142.4,92.1 C142.4,92.1 142.4,92.2 142.4,92.2 C142.4,92.3 142.4,92.3 142.4,92.4 C142.4,92.4 142.4,92.5 142.4,92.5 C142.4,92.6 142.4,92.6 142.3,92.7 C142.3,92.7 142.3,92.8 142.3,92.8 C142.3,92.9 142.2,93 142.2,93 C142.2,93 142.2,93.1 142.2,93.1 C142.2,93.2 142.1,93.3 142.1,93.3 C142.1,93.3 142.1,93.4 142.1,93.4 C142.1,93.5 142,93.6 142,93.6 C142,93.6 142,93.7 142,93.7 C142,93.8 141.9,93.9 141.8,94 C141.8,94 141.8,94.1 141.7,94.1 C141.6,94.2 141.6,94.3 141.5,94.4 C141.5,94.4 141.5,94.5 141.4,94.5 C141.3,94.6 141.3,94.7 141.2,94.8 C141.2,94.8 141.2,94.9 141.1,94.9 C141,95 140.9,95.1 140.9,95.2 C140.9,95.2 140.9,95.3 140.8,95.3 C140.7,95.4 140.6,95.5 140.5,95.6 C140.5,95.6 140.4,95.7 140.4,95.7 C140.3,95.8 140.2,95.9 140.1,96 C140.1,96 140,96.1 140,96.1 C139.9,96.2 139.8,96.3 139.7,96.4 C139.7,96.4 139.6,96.5 139.6,96.5 C139.5,96.6 139.4,96.7 139.3,96.8 C139.3,96.8 139.2,96.9 139.2,96.9 C139.1,97 139,97.1 138.8,97.2 C138.8,97.2 138.7,97.3 138.7,97.3 C138.6,97.4 138.4,97.5 138.3,97.6 C138.3,97.6 138.2,97.7 138.2,97.7 C138.1,97.8 137.9,97.9 137.8,98 C137.8,98 137.7,98.1 137.7,98.1 C137.6,98.2 137.4,98.3 137.3,98.4 C137.3,98.4 137.2,98.5 137.2,98.5 C137,98.6 136.9,98.7 136.7,98.8 C136.7,98.8 136.6,98.9 136.6,98.9 C136.4,99 136.3,99.1 136.1,99.2 C136.1,99.2 136,99.3 136,99.3 C135.8,99.4 135.6,99.5 135.5,99.6 C135.5,99.6 135.4,99.7 135.4,99.7 C135.2,99.8 135,99.9 134.8,100 C134.8,100 134.7,100.1 134.7,100.1 C134.5,100.2 134.3,100.3 134.1,100.4 C134.1,100.4 134,100.4 134,100.5 C133.8,100.6 133.6,100.7 133.3,100.8 C133.3,100.8 133.2,100.8 133.2,100.9 C133,101 132.7,101.1 132.5,101.2 C132.5,101.2 132.4,101.2 132.4,101.2 C132.1,101.3 131.9,101.4 131.6,101.6 C131.6,101.6 131.6,101.6 131.6,101.6 C129.8,102.4 127.8,103.1 125.6,103.9 C124.4,104.3 123.2,104.7 121.9,105 C118.5,107.1 114.3,108.3 109.7,108.3 L106.8,108.4 L106.8,118.6 C112.2,117.8 117.2,116.8 121.9,115.6 C121.9,115.6 122,115.6 122,115.6 C122.4,115.5 122.9,115.4 123.3,115.2 C125.2,114.7 127,114.2 128.7,113.6 C129.1,113.5 129.4,113.4 129.7,113.3 C129.8,113.3 129.9,113.2 129.9,113.2 C130.2,113.1 130.4,113 130.7,112.9 C130.8,112.9 130.9,112.8 131,112.8 C131.2,112.7 131.5,112.6 131.7,112.5 C131.8,112.5 131.9,112.4 132,112.4 C132.2,112.3 132.5,112.2 132.7,112.1 C132.8,112.1 132.8,112 132.9,112 C133.5,111.8 134.1,111.5 134.7,111.3 C134.7,111.3 134.8,111.3 134.8,111.3 C135.1,111.2 135.3,111.1 135.6,111 C135.7,111 135.7,110.9 135.8,110.9 C136,110.8 136.2,110.7 136.5,110.6 C136.6,110.6 136.6,110.5 136.7,110.5 C136.9,110.4 137.1,110.3 137.4,110.2 C137.4,110.2 137.5,110.2 137.5,110.1 C138.3,109.7 139.1,109.3 139.8,108.9 C139.8,108.9 139.9,108.9 139.9,108.8 C140.1,108.7 140.3,108.6 140.5,108.5 C140.5,108.5 140.6,108.4 140.6,108.4 C140.8,108.3 141,108.2 141.2,108.1 C141.2,108.1 141.3,108.1 141.3,108 C141.8,107.7 142.2,107.5 142.6,107.2 L142.6,123.9 C142.5,126.9 137.2,131.5 125.4,135.4 C112.6,139.6 95.4,141.9 77,141.9 C58.6,141.9 41.5,139.6 28.6,135.4 C16.7,131.5 11.4,126.8 11.4,123.8 L11.4,123.3 L11.4,107.1 C11.4,107.1 11.5,107.1 11.5,107.2 C11.9,107.4 12.2,107.7 12.6,107.9 C12.7,108 12.9,108.1 13,108.1 C13.3,108.3 13.6,108.4 13.8,108.6 C14,108.7 14.1,108.8 14.3,108.9 C14.6,109.1 14.9,109.2 15.3,109.4 C15.4,109.5 15.5,109.5 15.7,109.6 C16.1,109.8 16.5,110 16.9,110.2 C17.1,110.3 17.3,110.4 17.4,110.4 C17.7,110.5 18,110.7 18.3,110.8 C18.5,110.9 18.7,111 18.8,111 C19.2,111.2 19.7,111.4 20.2,111.6 C20.4,111.7 20.5,111.7 20.7,111.8 C21,111.9 21.4,112.1 21.7,112.2 C21.9,112.3 22.1,112.4 22.3,112.4 C22.6,112.5 23,112.6 23.3,112.8 C23.5,112.9 23.7,112.9 23.8,113 C24.3,113.2 24.8,113.3 25.3,113.5 C25.5,113.6 25.7,113.6 25.9,113.7 C26.2,113.8 26.6,113.9 27,114 C27.1,114 27.3,114.1 27.4,114.1 C26.9,113.4 26.5,112.6 26,111.9 C24.2,108.7 22.8,105.1 22,101.3 C14.6,98 11.2,94.5 11.2,92.2 L11.2,91.7 L11.2,75.5 C11.2,75.5 11.3,75.5 11.3,75.6 C11.7,75.9 12.1,76.1 12.5,76.3 C12.5,76.3 12.5,76.3 12.6,76.3 C13,76.5 13.4,76.8 13.8,77 C13.9,77.1 14,77.1 14.1,77.2 C14.5,77.4 14.9,77.6 15.3,77.8 C15.4,77.8 15.4,77.9 15.5,77.9 C16,78.1 16.4,78.4 16.9,78.6 C17,78.6 17.1,78.7 17.2,78.7 C17.6,78.9 18,79.1 18.4,79.2 C18.5,79.2 18.6,79.3 18.7,79.3 C19.4,79.6 20.2,79.9 21,80.2 L21,69.1 C14.3,65.9 11.2,62.7 11.2,60.4 L11.2,59.8 L11.2,43.8 C11.3,43.9 11.4,43.9 11.4,43.9 C11.7,44.1 12,44.3 12.3,44.4 C12.4,44.5 12.6,44.6 12.7,44.6 C13.1,44.8 13.4,45 13.8,45.2 C13.9,45.2 13.9,45.3 14,45.3 C14.4,45.5 14.8,45.7 15.3,46 C15.4,46.1 15.6,46.1 15.7,46.2 C16,46.4 16.3,46.5 16.7,46.7 C16.8,46.8 17,46.8 17.1,46.9 C17.6,47.1 18,47.3 18.5,47.5 C18.6,47.5 18.7,47.6 18.8,47.6 C19.2,47.8 19.6,47.9 20,48.1 C20.2,48.2 20.3,48.2 20.5,48.3 C20.9,48.4 21.2,48.6 21.6,48.7 C21.7,48.8 21.9,48.8 22,48.9 C22.5,49.1 23,49.3 23.5,49.5 C23.5,49.5 23.5,49.5 23.5,49.5 C24.3,47.2 25.3,44.9 26.5,42.8 C27,41.9 27.5,41.1 28.1,40.3 C16.4,36.4 11.1,31.7 11.1,28.8 C11.1,25.9 16.4,21.1 28.3,17.2 C41.1,13 58.3,10.7 76.7,10.7 C95.1,10.7 112.2,13 125.1,17.2 C136.5,20.9 141.8,25.6 141.8,28.6 C141.8,28.5 141.8,28.5 141.8,28.6 Z"/>
      <path d="M121.8,42.7 C118.9,37.9 114.9,34.2 109.7,31.5 C104.5,28.9 98.3,27.6 91.3,27.6 L66,27.6 C58,27.6 51,29.1 45.1,32.2 C39.1,35.3 34.6,39.7 31.3,45.5 C28.1,51.2 26.5,57.9 26.5,65.6 L26.5,91 C26.5,97.7 27.9,103.6 30.8,108.7 C33.7,113.8 37.7,117.6 43,120.4 C48.3,123.1 54.5,124.5 61.7,124.5 L100,124.5 L100,114.3 L61.7,114.3 C54.4,114.3 48.6,112.2 44.2,108 C39.9,103.8 37.7,98.2 37.7,91.1 L37.7,65.7 C37.7,57.2 40.3,50.4 45.4,45.4 C50.5,40.3 57.4,37.8 66.1,37.8 L91.3,37.8 C98.5,37.8 104.3,39.8 108.6,43.7 C112.9,47.6 115.1,52.9 115.1,59.6 L115.1,80.6 C115.1,84.3 114.5,87.2 113.4,89.2 C112.3,91.2 110.6,92.2 108.5,92.2 L105.2,92.2 C103.3,92.2 101.9,91.5 100.9,90.2 C99.9,88.9 99.4,87.2 99.4,85 L99.4,50.7 L89.4,50.7 L89.4,55.8 C88.1,54 86.3,52.6 84.2,51.5 C82.1,50.4 80,49.9 77.8,49.9 L71.8,49.9 C65.4,49.9 60.3,51.9 56.5,55.8 C52.7,59.8 50.8,65 50.8,71.7 L50.8,82.7 C50.8,88.9 52.6,93.9 56.2,97.6 C59.8,101.3 64.5,103.1 70.4,103.1 L76.9,103.1 C79.9,103.1 82.8,102.2 85.6,100.5 C88.5,98.8 90.7,96.6 92.4,93.7 L92.5,93.7 C93.7,96.2 95.4,98.1 97.5,99.6 C99.7,101 102,101.8 104.4,101.8 L108.5,101.8 C114,101.8 118.3,99.9 121.3,96.1 C124.3,92.3 125.8,86.9 125.8,79.9 L125.8,59.5 C126.1,53.1 124.6,47.5 121.8,42.7 Z M88.4,80.9 C88.1,84.7 86.9,87.8 84.8,90.1 C82.8,92.4 80.2,93.5 77,93.5 L70.6,93.5 C68,93.5 65.8,92.5 64.2,90.5 C62.6,88.5 61.8,85.8 61.8,82.4 L61.8,71.8 C61.8,68.1 62.8,65.1 64.7,62.8 C66.6,60.6 69.3,59.4 72.5,59.4 L78.5,59.4 C81.2,59.4 83.5,60.3 85.3,62.1 C87.1,63.9 88.1,66.4 88.4,69.4 L88.4,80.9 L88.4,80.9 Z"/>
    </g>
    <text fill="#FA2B3A" font-family="Helvetica" font-size="36">
      <tspan x="200.249" y="423">Database libraries for Node.js that protect you from SQL Injection</tspan>
    </text>
    <text fill="#FA2B3A" font-family="Helvetica" font-size="36">
      <tspan x="189.467" y="843">Postgres</tspan>
    </text>
    <text fill="#FA2B3A" font-family="Helvetica" font-size="36">
      <tspan x="495.488" y="843">MySQL</tspan>
    </text>
    <text fill="#FA2B3A" font-family="Helvetica" font-size="36">
      <tspan x="795.472" y="843">SQLite</tspan>
    </text>
    <text fill="#FA2B3A" font-family="Helvetica" font-size="36">
      <tspan x="1050.443" y="843">Expo/WebSQL</tspan>
    </text>
    <g transform="translate(163 534)">
      <g transform="translate(0 9)">
        <path fill="#000" fill-rule="nonzero" stroke="#000" stroke-width="37.395" d="M154.349486,154.220921 C155.778631,142.307934 155.350341,140.560939 164.2183,142.49066 L166.469719,142.688528 C173.288548,142.998959 182.208467,141.591167 187.44883,139.155165 C198.729636,133.917711 205.418818,125.173141 194.295405,127.470837 C168.922419,132.708291 167.177986,124.111618 167.177986,124.111618 C193.970531,84.3345276 205.170623,33.8412509 195.50309,21.4815459 C169.134798,-12.2312835 123.491977,3.71074722 122.72822,4.1246555 L122.485068,4.16957969 C117.471713,3.1287518 111.861073,2.50687985 105.55831,2.40491708 C94.0762232,2.21613452 85.3636393,5.41685696 78.7546669,10.4327186 C78.7546669,10.4327186 -2.66972929,-23.1332237 1.11828488,52.6453059 C1.92391261,68.7655191 24.2110968,174.624581 50.7927762,142.650166 C60.508233,130.958267 69.8973021,121.072421 69.8973021,121.072421 C74.5595509,124.171685 80.1414363,125.752613 85.9957317,125.184751 L86.4482352,124.798605 C86.306481,126.250312 86.3690345,127.67022 86.6293375,129.351091 C79.7827629,137.00688 81.7945622,138.351072 68.1039354,141.170696 C54.2528893,144.027168 62.3903852,149.112688 67.7018782,150.441737 C74.1428643,152.053455 89.0431939,154.336513 99.1137928,140.233345 L98.7127445,141.84254 C101.399011,143.992844 101.217404,157.297976 101.598274,166.804238 C101.979648,176.311004 102.615776,185.18227 104.552411,190.412658 C106.489045,195.642035 108.774263,209.114245 126.766952,205.255812 C141.804496,202.031366 153.301716,197.390545 154.349486,154.220417"/>
        <path fill="#336791" fill-rule="nonzero" d="M194.298245,127.456926 C168.923017,132.693821 167.178603,124.098066 167.178603,124.098066 C193.970852,84.3227047 205.17082,33.8338163 195.505412,21.4769466 C169.137412,-12.23026 123.493077,3.71107596 122.731346,4.12493999 L122.486179,4.16884996 C117.472879,3.12762862 111.862301,2.50733728 105.556581,2.40437599 C94.074621,2.21611832 85.3651601,5.41599389 78.7562607,10.4303099 C78.7562607,10.4303099 -2.6687495,-23.1305301 1.11821391,52.6393941 C1.92383275,68.7588935 24.2102663,174.606639 50.792661,142.635642 C60.5085149,130.944993 69.8959669,121.060203 69.8959669,121.060203 C74.5586688,124.159137 80.1404924,125.739895 85.9922009,125.172094 L86.4467173,124.785989 C86.3054691,126.237542 86.3700397,127.657297 86.6288265,129.337989 C79.7808142,136.992959 81.7930956,138.337008 68.103629,141.156331 C54.251727,144.012497 62.389133,149.097473 67.7020807,150.42638 C74.1429957,152.037926 89.0441696,154.32074 99.1126394,140.21908 L98.7110911,141.828103 C101.394301,143.978177 103.27845,155.814183 102.96266,166.543356 C102.64687,177.273033 102.436006,184.639308 104.550188,190.393028 C106.66437,196.146747 108.77149,209.092616 126.767511,205.234596 C141.804888,202.010494 149.597245,193.655488 150.681325,179.718869 C151.450623,169.810863 153.191506,171.275538 153.301478,162.417333 L154.697817,158.223679 C156.308045,144.792782 154.953577,140.459828 164.217941,142.475144 L166.469335,142.672991 C173.288089,142.983389 182.212449,141.575746 187.450232,139.140005 C198.728896,133.903111 205.418004,125.159476 194.297236,127.456926 L194.298245,127.456926 Z"/>
        <path stroke="#FFF" stroke-linecap="round" stroke-linejoin="round" stroke-width="12.465" d="M99.2445917 135.643564C98.5402246 160.671983 99.4215735 185.874786 101.885587 191.999966 104.351126 198.125145 109.627523 210.038866 127.771715 206.175626 142.930103 202.945729 148.445526 196.695195 150.838849 182.89863 152.601547 172.747958 155.999801 144.557373 156.435644 138.781468M78.2178218 10.2569398C78.2178218 10.2569398-3.67855483-23.0205634.128751294 52.6548057.938482001 68.7541892 23.3401865 174.473373 50.0577506 142.540762 59.821166 130.863189 68.6511349 121.704516 68.6511349 121.704516M122.890916 4.09258297C120.070236 4.97495806 168.219558-13.4688457 195.58333 21.4164297 205.249115 33.7404866 194.048125 84.0932487 167.253938 123.762376"/>
        <path stroke="#FFF" stroke-linecap="round" stroke-linejoin="bevel" stroke-width="12.465" d="M167.037545,123.922154 C167.037545,123.922154 168.79094,132.537236 194.275198,127.286567 C205.440994,124.984627 198.721252,133.746361 187.396885,138.996019 C178.103032,143.301537 157.26646,144.404971 156.926015,138.455427 C156.050077,123.104945 167.892711,127.768498 167.038052,123.922154 C166.265464,120.458118 160.96931,117.058306 157.466066,108.580269 C154.407631,101.180381 115.520364,44.4329027 168.250382,52.8608761 C170.182105,52.4618799 154.497809,2.79569998 105.149954,1.98809926 C55.8132445,1.18049855 57.4318797,62.551579 57.4318797,62.551579"/>
        <path stroke="#FFF" stroke-linecap="round" stroke-linejoin="round" stroke-width="12.465" d="M86.3814071,129.504448 C79.5842798,137.050659 81.5833171,138.375699 67.996572,141.156144 C54.2496236,143.972415 62.3263751,148.98448 67.5975656,150.294096 C73.9896788,151.883846 88.7779489,154.134374 98.7701315,140.228666 C101.812994,135.994807 98.7521087,129.239241 94.5723034,127.517136 C92.5527401,126.68569 89.8523125,125.643769 86.3814071,129.504448 L86.3814071,129.504448 Z"/>
        <path stroke="#FFF" stroke-linecap="round" stroke-linejoin="round" stroke-width="12.465" d="M85.6213152,129.70297 C84.9264045,125.177357 87.1096839,119.791994 89.4494198,113.491561 C92.9656273,104.038373 101.078507,94.5836632 94.5886095,64.596971 C89.7511573,42.2510894 57.3052281,59.9465063 57.2849091,62.9764391 C57.265098,66.0053569 58.7524507,78.3341892 56.742899,92.6910971 C54.1207287,111.425421 68.6742313,127.269889 85.4328563,125.648849"/>
        <path fill="#FFF" fill-rule="nonzero" stroke="#FFF" stroke-width="4.155" d="M78.2254049,62.8034987 C78.0753483,63.9159877 80.170409,66.8846256 82.902168,67.2812806 C85.6292377,67.6795724 87.963451,65.359659 88.1114234,64.2482613 C88.2593959,63.1357723 86.1669404,61.910343 83.4341393,61.5120512 C80.7055065,61.1132138 78.3702512,61.6937377 78.2259259,62.8034987 L78.2254049,62.8034987 Z"/>
        <path fill="#FFF" fill-rule="nonzero" stroke="#FFF" stroke-width="2.078" d="M158.408455,59.8330328 C158.556382,60.9455633 156.464581,63.914312 153.733157,64.3109818 C151.004858,64.7092885 148.671375,62.3892886 148.521887,61.2778493 C148.377607,60.1653187 150.469928,58.9398437 153.198748,58.541537 C155.927568,58.1432304 158.260529,58.7232303 158.408455,59.8335784 L158.408455,59.8330328 Z"/>
        <path stroke="#FFF" stroke-linecap="round" stroke-linejoin="round" stroke-width="12.465" d="M168.256929,53.4653465 C168.710909,61.550622 166.444694,67.057749 166.159049,75.6647203 C165.736107,88.1753116 172.365891,102.494651 162.376238,116.831683"/>
      </g>
      <g fill="#00546B" fill-rule="nonzero" transform="translate(305 14)">
        <path d="M184.221366,151.539781 C173.33931,151.268967 164.905561,152.355675 157.831997,155.341573 C155.791611,156.155752 152.526648,156.156604 152.25444,158.735404 C153.34334,159.822126 153.479019,161.586754 154.431354,163.079698 C156.064704,165.793905 158.920047,169.460286 161.504882,171.36118 C164.361076,173.532892 167.218118,175.704604 170.210025,177.605498 C175.515374,180.863933 181.500817,182.763954 186.669637,186.022374 C189.663244,187.921536 192.65423,190.36666 195.646986,192.402962 C197.143807,193.487955 198.095293,195.253435 200,195.932203 C200,195.795934 200,195.660523 200,195.525119 C199.047629,194.303 198.775422,192.538373 197.823936,191.180832 C196.464529,189.823296 195.103422,188.601174 193.743165,187.243637 C189.798073,181.949753 184.901459,177.333828 179.596181,173.532892 C175.244053,170.546131 165.721404,166.473529 163.953189,161.450467 C163.953189,161.450467 163.81666,161.315056 163.680982,161.179645 C166.673704,160.907965 170.210025,159.822119 173.067103,159.00707 C177.692324,157.784955 181.908809,158.056629 186.669637,156.835358 C188.845701,156.292008 191.022651,155.61324 193.198715,154.934468 C193.198715,154.526521 193.198715,154.120296 193.198715,153.713212 C190.751294,151.268946 188.982266,148.011388 186.39743,145.703389 C179.460467,139.729033 171.842489,133.892647 163.953189,129.005841 C159.735854,126.290771 154.294826,124.525274 149.806204,122.218151 C148.17459,121.402257 145.453191,120.996036 144.501705,119.638485 C142.052559,116.651742 140.692302,112.715405 138.924145,109.185269 C134.980788,101.717994 131.170492,93.4381914 127.769893,85.5646489 C125.322471,80.2699133 123.825672,74.975153 120.832933,70.0884314 C106.822502,47.0103378 91.5874084,33.0278496 68.1908537,19.3162302 C63.1577363,16.4657424 57.173144,15.2436254 50.7797485,13.7506798 C47.3799739,13.6144082 43.9784635,13.3435946 40.5777963,13.207323 C38.4017323,12.256866 36.2248039,9.67807505 34.3200934,8.45594707 C26.5681979,3.56830309 6.57136808,-7.0194697 0.858136416,6.96300153 C-2.81473103,15.7870116 6.29916436,24.4746878 9.42754642,28.9552246 C11.7410177,32.0773944 14.7328923,35.6066345 16.3653743,39.1367812 C17.3177313,41.4430413 17.5890848,43.8881521 18.5414418,46.3315483 C20.7183666,52.3033269 22.7578877,58.9564264 25.6149446,64.5229026 C27.1117445,67.3733901 28.7433621,70.3601402 30.6480655,72.9389117 C31.736094,74.4318555 33.6399365,75.1114865 34.0487009,77.5548791 C32.1448654,80.2699416 32.008319,84.342562 30.919419,87.7364282 C26.0228446,103.076376 27.9275445,122.081938 34.8645115,133.349276 C37.0405755,136.742258 42.2102109,144.210431 49.1472311,141.359095 C55.268384,138.915692 53.9081234,131.177546 55.6762875,124.389863 C56.0850589,122.759787 55.8128304,121.6748 56.6286409,120.588934 C56.6293494,120.724344 56.6286409,120.860611 56.6286409,120.860611 C58.5333408,124.66154 60.4371869,128.327087 62.2053439,132.127952 C66.4226542,138.779362 73.7675495,145.703307 79.8886634,150.319321 C83.1544917,152.76184 85.7384557,156.970734 89.819209,158.464533 C89.819209,158.32739 89.819209,158.192849 89.819209,158.056579 C89.6826625,158.056579 89.6826625,158.056579 89.5469875,158.056579 C88.7303161,156.83446 87.5066056,156.291951 86.41857,155.341517 C83.9702775,152.89812 81.2489027,149.91136 79.3450672,147.196304 C73.6326822,139.593555 68.5986899,131.177553 64.1100437,122.489008 C61.9339797,118.280994 60.0292799,113.664988 58.2611158,109.456989 C57.4444444,107.826916 57.4444444,105.384383 56.0841874,104.570211 C54.0438055,107.556095 51.0519309,110.135761 49.555131,113.80129 C46.9720279,119.63852 46.6989385,126.833305 45.7465851,134.299703 C45.2029924,134.43598 45.4743565,134.299703 45.2021316,134.571391 C40.85,133.484669 39.3532001,129.005841 37.7206898,125.204042 C33.6399224,115.565903 32.9597974,100.089608 36.4969793,88.9585399 C37.4493327,86.1071969 41.5301001,77.1477878 39.8976182,74.4327111 C39.0818076,71.8530416 36.3604328,70.3601049 34.8644973,68.3238035 C33.0963333,65.7441376 31.1916334,62.4865695 29.9679229,59.6352583 C26.7029589,52.0333822 25.070484,43.6165069 21.5341772,36.0137576 C19.9016952,32.483647 17.0455027,28.8189894 14.7328923,25.561409 C12.1489283,21.8958969 9.29186434,19.3162302 7.25145407,14.9719286 C6.57218641,13.478983 5.6189721,11.0355954 6.70700765,9.40637117 C6.97923263,8.32052185 7.52281467,7.91342952 8.61170751,7.6417472 C10.3798715,6.14794043 15.4129924,8.04883246 17.1811175,8.86301395 C22.2142384,10.898448 26.430695,12.8002158 30.6480053,15.6506962 C32.5518443,17.008231 34.5922263,19.5878977 37.0405188,20.2666652 C37.9928723,20.2666652 38.9452187,20.2666652 39.8975721,20.2666652 C44.2505645,21.2162536 49.1471496,20.5383327 53.2279135,21.7596104 C60.4379627,24.0667339 66.966137,27.4614324 72.815986,31.1269593 C90.635852,42.3943033 105.325571,58.4139279 115.256187,77.5548861 C116.888669,80.6761879 117.567933,83.528383 119.064733,86.7859652 C121.92179,93.4382374 125.458107,100.225917 128.314307,106.741926 C131.1705,113.121652 133.89101,119.638534 137.971763,124.933281 C140.013009,127.782905 148.173705,129.276705 151.846519,130.770511 C154.567033,131.991781 158.784368,133.078504 161.232639,134.571444 C165.857011,137.421062 170.482232,140.680365 174.83521,143.802519 C177.012125,145.430881 183.812559,148.825581 184.221331,151.539796 L184.221366,151.539781 L184.221366,151.539781 Z"/>
        <path d="M45.5589742,33.8983051 C43.2537193,33.8983051 41.6272922,34.1676621 40,34.5699977 C40,34.5692988 40,34.7046744 40,34.8385021 C40.1361124,34.8385021 40.1352507,34.8385021 40.2713631,34.8385021 C41.3567978,36.9848246 43.2537263,38.4611674 44.6096554,40.3389792 C45.6950937,42.4853024 46.6435509,44.6324852 47.7289891,46.779661 C47.8642328,46.6449808 47.9994835,46.5111566 47.9994835,46.5111566 C49.8989969,45.168638 50.8474576,43.0223148 50.8474576,39.8028264 C50.0333789,38.863489 49.8981282,37.9241551 49.2201654,36.9848176 C48.4069484,35.6422962 46.6435438,34.9723228 45.5589742,33.8983051 L45.5589742,33.8983051 L45.5589742,33.8983051 Z"/>
      </g>
      <g fill-rule="nonzero" transform="translate(610)">
        <path fill="#0F80CC" d="M157.227465,9.9101831 L17.078169,9.9101831 C7.68521127,9.9101831 0,17.5968028 0,26.9894085 L0,181.547859 C0,190.93993 7.68521127,198.625324 17.078169,198.625324 L109.384155,198.625324 C108.336456,152.696859 124.020421,63.5639465 157.227465,9.9101831 Z"/>
        <path fill="url(#readme-a)" d="M152.135915,14.8925775 L17.078169,14.8925775 C10.4086268,14.8925775 4.98116197,20.3186338 4.98116197,26.9894085 L4.98116197,170.271282 C35.568838,158.531845 81.4772324,148.402408 113.220014,148.862451 C119.598789,115.509069 138.345944,50.1435437 152.135915,14.8925775 Z"/>
        <path fill="#003B57" d="M189.917606,4.85208451 C180.319014,-3.70777465 168.697535,-0.269394366 157.227465,9.9101831 C155.525,11.422507 153.826056,13.1003239 152.135915,14.8925775 C132.514437,35.7077183 114.301408,74.2640563 108.642958,103.709479 C110.847183,108.179549 112.569014,113.883775 113.702817,118.241169 C113.99331,119.359127 114.255634,120.408423 114.465141,121.301028 C114.96338,123.413528 115.230986,124.783423 115.230986,124.783423 C115.230986,124.783423 115.05493,124.117754 114.333099,122.02462 C114.195775,121.623211 114.042606,121.184831 113.861268,120.668986 C113.783803,120.455958 113.676408,120.197155 113.558451,119.920746 C112.278521,116.945394 108.738028,110.665465 107.17993,107.93131 C105.847183,111.862648 104.669366,115.540465 103.683451,118.86793 C108.18169,127.098211 110.922887,141.202789 110.922887,141.202789 C110.922887,141.202789 110.685211,140.288704 109.55493,137.098394 C108.551408,134.276732 103.553169,125.519338 102.36919,123.471979 C100.343838,130.948746 99.5390845,135.996634 100.264789,137.225676 C101.673768,139.607197 103.015669,143.716352 104.194014,148.260718 C106.855986,158.498211 108.706338,170.96107 108.706338,170.96107 C108.706338,170.96107 108.766197,171.786944 108.866549,173.057901 C108.496831,181.655085 108.718662,190.568634 109.384155,198.625324 C110.266197,209.290465 111.926408,218.452268 114.042606,223.355606 L115.479225,222.572338 C112.371831,212.911944 111.109507,200.251732 111.662324,185.65138 C112.498592,163.33431 117.634155,136.42093 127.123592,108.36969 C143.155282,66.0246197 165.398239,32.0492676 185.755634,15.8239155 C167.201056,32.5809577 142.08838,86.8221549 134.570775,106.908423 C126.153521,129.40138 120.188732,150.508958 116.593662,170.732014 C122.796127,151.773042 142.850704,143.623563 142.850704,143.623563 C142.850704,143.623563 152.686972,131.492761 164.18169,114.161944 C157.296127,115.732366 145.989789,118.420746 142.202817,120.012296 C136.616549,122.355606 135.111268,123.154901 135.111268,123.154901 C135.111268,123.154901 153.206338,112.135535 168.730986,107.146099 C190.081338,73.519338 213.341901,25.7482113 189.917606,4.85208451"/>
      </g>
      <path fill="#1173B6" fill-rule="nonzero" d="M124.243753,12.713722 C116.878562,1.49057431 115.124945,0 100.131521,0 L100.131521,0 L99.9561594,0 L99.7807977,0 L99.7807977,0 C84.7873742,0 83.1214383,1.49057431 75.6685664,12.713722 C68.7417799,23.235423 0,149.145112 0,152.652345 C0,157.737834 1.31521263,162.56028 6.04997808,169.399386 C10.8724244,176.326173 19.2021044,180.18413 25.2520824,174.046471 C29.373082,169.925471 73.4765454,93.9061812 94.7829898,65.1468654 L94.7829898,65.1468654 C97.3257344,61.5519509 102.586585,61.5519509 105.21701,65.1468654 L105.21701,65.1468654 C126.523455,93.9061812 170.626918,169.925471 174.747918,174.046471 C180.797895,180.18413 189.127576,176.326173 193.950022,169.399386 C198.684787,162.56028 200,157.737834 200,152.652345 C199.91232,149.145112 131.170539,23.1477422 124.243753,12.713722 Z" transform="translate(915 24)"/>
    </g>
  </g>
</svg>
