<svg xmlns="http://www.w3.org/2000/svg" width="1440" height="540" viewBox="0 0 1440 540">
  <g fill="none" fill-rule="evenodd">
    <rect width="1440" height="540" fill="#FFF"/>
    <path fill="#FA2B3A" fill-rule="nonzero" d="M6.9 86.7C2.5 82.1.3 75.9.3 68.3L.3 52.8C.3 47.5 1.4 42.9 3.5 38.8 5.6 34.7 8.6 31.6 12.4 29.3 16.2 27.1 20.6 25.9 25.6 25.9L34.5 25.9C37.3 25.9 40.1 26.6 42.8 27.9 45.5 29.2 47.7 31 49.4 33.2L49.4.6 61.8.6 61.8 92.7 50 92.7 50 83.4C48.1 86.5 45.5 89 42.4 90.9 39.2 92.8 36.1 93.8 32.9 93.8L24.3 93.8C17.2 93.7 11.4 91.3 6.9 86.7zM33.4 82.9C37.5 82.9 41.1 81.2 44.2 77.8 47.3 74.4 49 70.4 49.3 65.8L49.3 50.9C48.7 46.6 47.1 43.2 44.5 40.6 41.9 38 38.8 36.7 35.2 36.7L26.4 36.7C22.3 36.7 18.9 38.2 16.3 41.2 13.7 44.2 12.4 48.2 12.4 53.2L12.4 67.8C12.4 72.3 13.6 75.9 16 78.7 18.4 81.5 21.5 82.8 25.1 82.8L33.4 82.8 33.4 82.9zM126.9 31.8C122.7 27.9 117.1 26 110.2 26L99.4 26C92.5 26 86.9 27.8 82.6 31.3 78.3 34.8 76.2 39.4 76.2 45.1L88.3 45.1C88.3 42.5 89.3 40.5 91.3 38.9 93.3 37.3 96 36.5 99.3 36.5L110.1 36.5C113.4 36.5 116 37.5 118 39.5 120 41.5 121 44.1 121 47.3L121 52.4 96.7 52.4C90 52.4 84.6 54.1 80.5 57.5 76.4 60.9 74.3 65.3 74.3 70.9L74.3 75.2C74.3 80.8 76.3 85.3 80.2 88.7 84.1 92.1 89.4 93.8 96 93.8L103.9 93.8C107.2 93.8 110.5 92.9 113.8 91.1 117 89.3 119.7 86.9 121.7 83.9L121.7 92.7 133.1 92.7 133.1 47.3C133.2 40.8 131.1 35.7 126.9 31.8zM114.9 80.2C111.9 82.4 108.5 83.5 104.6 83.5L96.8 83.5C93.6 83.5 91.1 82.7 89.2 81.2 87.3 79.7 86.4 77.6 86.4 75L86.4 71C86.4 68.4 87.4 66.3 89.3 64.7 91.2 63.1 93.7 62.3 96.8 62.3L121 62.3 121 71.1C119.9 74.9 117.9 77.9 114.9 80.2zM158.3 87.9C155.1 84.7 153.5 79.7 153.5 72.6L153.5 37.6 141.9 37.6 141.9 27 153.6 27 153.6 7.1 165.7 7.1 165.7 27 182.8 27 182.8 37.7 165.7 37.7 165.7 72.4C165.7 75.8 166.4 78.3 167.7 79.8 169.1 81.3 171.3 82 174.3 82L182.7 82 182.7 92.7 173.8 92.7C166.7 92.6 161.5 91 158.3 87.9zM283 91C279.9 89.2 277.5 86.9 275.8 84.2L275.8 92.6 264.1 92.6 264.1.5 276.3.5 276.3 33.8C278.2 31.4 280.6 29.5 283.5 28.1 286.4 26.7 289.3 25.9 292.2 25.9L301.5 25.9C306.1 25.9 310.3 27 313.9 29.1 317.5 31.2 320.4 34.1 322.4 37.9 324.4 41.7 325.4 46.1 325.4 51.1L325.4 67.4C325.4 72.6 324.4 77.2 322.3 81.2 320.2 85.2 317.4 88.3 313.7 90.5 310 92.7 305.8 93.8 300.9 93.8L292 93.8C289.1 93.7 286.1 92.8 283 91zM300.3 82.9C304.2 82.9 307.3 81.4 309.6 78.5 312 75.6 313.2 71.7 313.2 66.9L313.2 51.5C313.2 47.1 312 43.6 309.7 40.8 307.4 38.1 304.4 36.7 300.7 36.7L292.1 36.7C287.9 36.7 284.3 38.2 281.3 41.3 278.3 44.4 276.7 48.4 276.3 53.3L276.3 67.8C276.6 72 278.3 75.6 281.3 78.5 284.3 81.4 287.7 82.9 291.4 82.9L300.3 82.9zM411.5 87.8C407.2 83.9 405.1 78.7 405.1 72.3L417.1 72.3C417.1 75.5 418.2 78.2 420.3 80.2 422.4 82.2 425.2 83.2 428.7 83.2L440.3 83.2C443.6 83.2 446.3 82.6 448.3 81.3 450.3 80 451.3 78.3 451.3 76.2L451.3 72.4C451.3 71 450.7 69.7 449.5 68.7 448.3 67.6 446.8 66.9 445 66.5L422.2 62.6C417.4 61.7 413.5 59.9 410.6 57.1 407.7 54.3 406.3 51.1 406.3 47.4L406.3 43.1C406.3 37.9 408.4 33.8 412.5 30.6 416.6 27.4 422.1 25.9 429.1 25.9L440.2 25.9C446.8 25.9 452.1 27.7 456.1 31.3 460.1 34.9 462.1 39.7 462.1 45.6L450.1 45.6C450 42.8 449.1 40.5 447.3 38.8 445.5 37.1 443.2 36.2 440.3 36.2L429.4 36.2C426.2 36.2 423.6 36.9 421.7 38.2 419.8 39.5 418.9 41.3 418.9 43.5L418.9 46.8C418.9 48.2 419.5 49.4 420.7 50.5 421.9 51.6 423.5 52.3 425.4 52.7L448.4 56.8C453 57.6 456.7 59.3 459.5 62.1 462.3 64.8 463.8 68 463.8 71.6L463.8 76.7C463.8 81.8 461.6 85.9 457.4 89 453.1 92.1 447.4 93.7 440.4 93.7L428.8 93.7C421.5 93.7 415.8 91.7 411.5 87.8zM480.7 87C476 82.6 473.7 76.8 473.7 69.6L473.7 51.4C473.7 43.7 476 37.5 480.7 32.8 485.4 28.2 491.6 25.8 499.3 25.8L510.1 25.8C517.6 25.8 523.6 28.1 528.1 32.6 532.7 37.2 534.9 43.2 534.9 50.8L534.9 63.2 485.8 63.2 485.8 69.5C485.8 73.5 487 76.8 489.5 79.2 492 81.7 495.2 82.9 499.2 82.9L509.3 82.9C513.2 82.9 516.4 81.9 518.9 79.8 521.4 77.7 522.6 75 522.6 71.6L534.6 71.6C534.6 78.2 532.3 83.5 527.6 87.5 522.9 91.5 516.8 93.6 509.2 93.6L499.2 93.6C491.6 93.7 485.4 91.5 480.7 87zM522.7 53.5L522.7 50.9C522.7 46.5 521.5 43 519.2 40.4 516.9 37.8 513.8 36.5 510.1 36.5L499.3 36.5C495.3 36.5 492 37.9 489.6 40.6 487.2 43.3 485.9 47 485.9 51.6L485.9 53.6 522.7 53.6 522.7 53.5zM551.4 87.8C547.1 83.9 545 78.7 545 72.3L557 72.3C557 75.5 558.1 78.2 560.2 80.2 562.3 82.2 565.1 83.2 568.6 83.2L580.2 83.2C583.5 83.2 586.2 82.6 588.2 81.3 590.2 80 591.2 78.3 591.2 76.2L591.2 72.4C591.2 71 590.6 69.7 589.4 68.7 588.2 67.6 586.7 66.9 584.9 66.5L562.1 62.6C557.3 61.7 553.4 59.9 550.5 57.1 547.6 54.3 546.2 51.1 546.2 47.4L546.2 43.1C546.2 37.9 548.3 33.8 552.4 30.6 556.5 27.4 562 25.9 569 25.9L580.1 25.9C586.7 25.9 592 27.7 596 31.3 600 34.9 602 39.7 602 45.6L590 45.6C589.9 42.8 589 40.5 587.2 38.8 585.4 37.1 583.1 36.2 580.2 36.2L569 36.2C565.8 36.2 563.2 36.9 561.3 38.2 559.4 39.5 558.5 41.3 558.5 43.5L558.5 46.8C558.5 48.2 559.1 49.4 560.3 50.5 561.5 51.6 563.1 52.3 565 52.7L588 56.8C592.6 57.6 596.3 59.3 599.1 62.1 601.9 64.8 603.4 68 603.4 71.6L603.4 76.7C603.4 81.8 601.2 85.9 597 89 592.7 92.1 587 93.7 580 93.7L568.4 93.7C561.4 93.7 555.7 91.7 551.4 87.8zM243.8 31.8C239.6 27.9 234 26 227.1 26L216.3 26C209.4 26 203.8 27.8 199.5 31.3 195.2 34.8 193.1 39.4 193.1 45.1L205.2 45.1C205.2 42.5 206.2 40.5 208.2 38.9 210.2 37.3 212.9 36.5 216.2 36.5L227 36.5C230.3 36.5 232.9 37.5 234.9 39.5 236.9 41.5 237.9 44.1 237.9 47.3L237.9 52.4 213.6 52.4C206.9 52.4 201.5 54.1 197.4 57.5 193.3 60.9 191.2 65.3 191.2 70.9L191.2 75.2C191.2 80.8 193.2 85.3 197.1 88.7 201 92.1 206.3 93.8 212.9 93.8L220.8 93.8C224.1 93.8 227.4 92.9 230.7 91.1 233.9 89.3 236.6 86.9 238.6 83.9L238.6 92.7 250 92.7 250 47.3C250.1 40.8 248 35.7 243.8 31.8zM231.8 80.2C228.8 82.4 225.4 83.5 221.5 83.5L213.7 83.5C210.5 83.5 208 82.7 206.1 81.2 204.2 79.7 203.3 77.6 203.3 75L203.3 71C203.3 68.4 204.3 66.3 206.2 64.7 208.1 63.1 210.6 62.3 213.7 62.3L238 62.3 238 71.1C236.8 74.9 234.8 77.9 231.8 80.2zM388.1 31.8C383.9 27.9 378.3 26 371.4 26L360.6 26C353.7 26 348.1 27.8 343.8 31.3 339.5 34.8 337.4 39.4 337.4 45.1L349.5 45.1C349.5 42.5 350.5 40.5 352.5 38.9 354.5 37.3 357.2 36.5 360.5 36.5L371.3 36.5C374.6 36.5 377.2 37.5 379.2 39.5 381.2 41.5 382.2 44.1 382.2 47.3L382.2 52.4 357.9 52.4C351.2 52.4 345.8 54.1 341.7 57.5 337.6 60.9 335.5 65.3 335.5 70.9L335.5 75.2C335.5 80.8 337.5 85.3 341.4 88.7 345.3 92.1 350.6 93.8 357.2 93.8L365.1 93.8C368.4 93.8 371.7 92.9 375 91.1 378.2 89.3 380.9 86.9 382.9 83.9L382.9 92.7 394.3 92.7 394.3 47.3C394.4 40.8 392.3 35.7 388.1 31.8zM376.1 80.2C373.1 82.4 369.7 83.5 365.8 83.5L358 83.5C354.8 83.5 352.3 82.7 350.4 81.2 348.5 79.7 347.6 77.6 347.6 75L347.6 71C347.6 68.4 348.6 66.3 350.5 64.7 352.4 63.1 354.9 62.3 358 62.3L382.2 62.3 382.2 71.1C381.1 74.9 379.1 77.9 376.1 80.2z" transform="translate(504 215)"/>
    <g fill="#FA2B3A" fill-rule="nonzero" transform="translate(332 194)">
      <path d="M152,28.7 C152,28.7 152,28.6 152,28.6 C152,10 113.9,0.3 76.2,0.3 C56.8,0.3 38.5,2.8 24.6,7.4 C4.6,14 0.4,22.6 0.4,28.7 C0.4,28.7 0.4,28.7 0.4,28.7 L0.4,28.7 L0.4,60.3 L0.4,60.3 L0.4,91.9 L0.4,91.9 L0.4,123.5 L0.4,124 L0.4,124.1 C1.2,142.3 38.9,151.9 76.1,151.9 C95.5,151.9 113.8,149.4 127.7,144.8 C147.7,138.2 151.9,129.6 151.9,123.5 L151.9,92 C151.9,92 151.9,91.9 151.9,91.9 L151.9,60.4 C151.9,60.4 151.9,60.3 151.9,60.3 L152,28.7 Z M141.8,28.6 L141.8,28.6 C141.8,31.4 137.1,35.7 126.7,39.4 C126.8,39.5 126.8,39.6 126.9,39.7 C128.6,42.5 129.8,45.6 130.7,48.8 C130.8,48.8 130.8,48.8 130.9,48.7 C131,48.7 131.1,48.6 131.2,48.6 C131.5,48.5 131.7,48.4 132,48.3 C132.1,48.3 132.1,48.3 132.2,48.2 C132.8,48 133.4,47.7 134,47.5 C134,47.5 134.1,47.5 134.1,47.5 C134.4,47.4 134.6,47.3 134.9,47.2 C135,47.2 135,47.1 135.1,47.1 C135.3,47 135.5,46.9 135.7,46.8 C135.8,46.8 135.8,46.7 135.9,46.7 C136.1,46.6 136.3,46.5 136.5,46.4 C136.6,46.4 136.6,46.3 136.7,46.3 C137.2,46 137.8,45.8 138.3,45.5 C138.3,45.5 138.3,45.5 138.3,45.5 C138.5,45.4 138.8,45.3 139,45.1 C139.1,45.1 139.1,45 139.2,45 C139.4,44.9 139.6,44.8 139.8,44.7 C139.9,44.7 139.9,44.6 140,44.6 C140.2,44.5 140.4,44.4 140.5,44.3 C140.6,44.3 140.6,44.2 140.7,44.2 C140.9,44.1 141.1,44 141.3,43.8 C141.3,43.8 141.3,43.8 141.4,43.8 C141.6,43.7 141.8,43.5 142.1,43.4 L142.1,60.1 C142.1,60.2 142.1,60.2 142.1,60.3 C142.1,60.3 142.1,60.4 142.1,60.4 C142.1,60.5 142.1,60.5 142.1,60.6 C142.1,60.6 142.1,60.7 142.1,60.7 C142.1,60.8 142.1,60.8 142,60.9 C142,60.9 142,61 142,61 C142,61.1 141.9,61.1 141.9,61.2 C141.9,61.2 141.9,61.3 141.9,61.3 C141.9,61.4 141.8,61.5 141.8,61.5 C141.8,61.5 141.8,61.6 141.8,61.6 C141.8,61.7 141.7,61.8 141.7,61.8 C141.7,61.8 141.7,61.9 141.6,61.9 C141.6,62 141.5,62.1 141.5,62.1 C141.5,62.1 141.5,62.2 141.4,62.2 C141.3,62.3 141.3,62.4 141.2,62.4 C141.2,62.4 141.2,62.5 141.1,62.5 C141,62.6 141,62.7 140.9,62.8 C140.9,62.8 140.8,62.9 140.8,62.9 C140.7,63 140.7,63.1 140.6,63.2 C140.6,63.2 140.5,63.3 140.5,63.3 C140.4,63.4 140.3,63.5 140.3,63.6 C140.3,63.6 140.2,63.7 140.2,63.7 C140.1,63.8 140,63.9 139.9,64 C139.9,64 139.8,64.1 139.8,64.1 C139.7,64.2 139.6,64.3 139.5,64.4 C139.5,64.4 139.4,64.5 139.4,64.5 C139.3,64.6 139.2,64.7 139.1,64.8 C139.1,64.8 139,64.9 139,64.9 C138.9,65 138.8,65.1 138.6,65.2 C138.6,65.2 138.5,65.3 138.5,65.3 C138.4,65.4 138.2,65.5 138.1,65.6 C138.1,65.6 138,65.7 138,65.7 C137.9,65.8 137.7,65.9 137.6,66 C137.6,66 137.5,66.1 137.5,66.1 C137.4,66.2 137.2,66.3 137,66.4 C137,66.4 136.9,66.5 136.9,66.5 C136.7,66.6 136.6,66.7 136.4,66.8 C136.4,66.8 136.3,66.8 136.3,66.9 C136.1,67 135.9,67.1 135.8,67.2 C135.8,67.2 135.7,67.2 135.7,67.3 C135.5,67.4 135.3,67.5 135.1,67.6 C135.1,67.6 135,67.6 135,67.7 C134.8,67.8 134.6,67.9 134.4,68 C134.4,68 134.3,68 134.3,68 C134.1,68.1 133.8,68.2 133.6,68.4 C133.6,68.4 133.6,68.4 133.5,68.4 C133.3,68.5 133,68.6 132.7,68.8 C132.7,68.8 132.7,68.8 132.7,68.8 C132.6,68.8 132.5,68.9 132.4,68.9 L132.4,79.9 C132.4,79.9 132.4,79.9 132.4,80 C132.4,80 132.4,80 132.5,80 C133.1,79.8 133.7,79.5 134.3,79.3 C134.3,79.3 134.4,79.3 134.4,79.3 C134.7,79.2 134.9,79.1 135.2,79 C135.3,79 135.3,78.9 135.4,78.9 C135.6,78.8 135.8,78.7 136,78.6 C136.1,78.6 136.1,78.5 136.2,78.5 C136.4,78.4 136.6,78.3 136.8,78.2 C136.9,78.2 136.9,78.1 137,78.1 C137.5,77.8 138.1,77.6 138.6,77.3 C138.6,77.3 138.6,77.3 138.6,77.3 C138.8,77.2 139.1,77.1 139.3,76.9 C139.4,76.9 139.4,76.8 139.5,76.8 C139.7,76.7 139.9,76.6 140.1,76.5 C140.2,76.5 140.2,76.4 140.3,76.4 C140.5,76.3 140.7,76.2 140.8,76.1 C140.9,76.1 140.9,76 141,76 C141.2,75.9 141.4,75.8 141.6,75.6 C141.6,75.6 141.6,75.6 141.7,75.6 C141.9,75.5 142.1,75.3 142.4,75.2 L142.4,91.9 C142.4,92 142.4,92 142.4,92.1 C142.4,92.1 142.4,92.2 142.4,92.2 C142.4,92.3 142.4,92.3 142.4,92.4 C142.4,92.4 142.4,92.5 142.4,92.5 C142.4,92.6 142.4,92.6 142.3,92.7 C142.3,92.7 142.3,92.8 142.3,92.8 C142.3,92.9 142.2,93 142.2,93 C142.2,93 142.2,93.1 142.2,93.1 C142.2,93.2 142.1,93.3 142.1,93.3 C142.1,93.3 142.1,93.4 142.1,93.4 C142.1,93.5 142,93.6 142,93.6 C142,93.6 142,93.7 142,93.7 C142,93.8 141.9,93.9 141.8,94 C141.8,94 141.8,94.1 141.7,94.1 C141.6,94.2 141.6,94.3 141.5,94.4 C141.5,94.4 141.5,94.5 141.4,94.5 C141.3,94.6 141.3,94.7 141.2,94.8 C141.2,94.8 141.2,94.9 141.1,94.9 C141,95 140.9,95.1 140.9,95.2 C140.9,95.2 140.9,95.3 140.8,95.3 C140.7,95.4 140.6,95.5 140.5,95.6 C140.5,95.6 140.4,95.7 140.4,95.7 C140.3,95.8 140.2,95.9 140.1,96 C140.1,96 140,96.1 140,96.1 C139.9,96.2 139.8,96.3 139.7,96.4 C139.7,96.4 139.6,96.5 139.6,96.5 C139.5,96.6 139.4,96.7 139.3,96.8 C139.3,96.8 139.2,96.9 139.2,96.9 C139.1,97 139,97.1 138.8,97.2 C138.8,97.2 138.7,97.3 138.7,97.3 C138.6,97.4 138.4,97.5 138.3,97.6 C138.3,97.6 138.2,97.7 138.2,97.7 C138.1,97.8 137.9,97.9 137.8,98 C137.8,98 137.7,98.1 137.7,98.1 C137.6,98.2 137.4,98.3 137.3,98.4 C137.3,98.4 137.2,98.5 137.2,98.5 C137,98.6 136.9,98.7 136.7,98.8 C136.7,98.8 136.6,98.9 136.6,98.9 C136.4,99 136.3,99.1 136.1,99.2 C136.1,99.2 136,99.3 136,99.3 C135.8,99.4 135.6,99.5 135.5,99.6 C135.5,99.6 135.4,99.7 135.4,99.7 C135.2,99.8 135,99.9 134.8,100 C134.8,100 134.7,100.1 134.7,100.1 C134.5,100.2 134.3,100.3 134.1,100.4 C134.1,100.4 134,100.4 134,100.5 C133.8,100.6 133.6,100.7 133.3,100.8 C133.3,100.8 133.2,100.8 133.2,100.9 C133,101 132.7,101.1 132.5,101.2 C132.5,101.2 132.4,101.2 132.4,101.2 C132.1,101.3 131.9,101.4 131.6,101.6 C131.6,101.6 131.6,101.6 131.6,101.6 C129.8,102.4 127.8,103.1 125.6,103.9 C124.4,104.3 123.2,104.7 121.9,105 C118.5,107.1 114.3,108.3 109.7,108.3 L106.8,108.4 L106.8,118.6 C112.2,117.8 117.2,116.8 121.9,115.6 C121.9,115.6 122,115.6 122,115.6 C122.4,115.5 122.9,115.4 123.3,115.2 C125.2,114.7 127,114.2 128.7,113.6 C129.1,113.5 129.4,113.4 129.7,113.3 C129.8,113.3 129.9,113.2 129.9,113.2 C130.2,113.1 130.4,113 130.7,112.9 C130.8,112.9 130.9,112.8 131,112.8 C131.2,112.7 131.5,112.6 131.7,112.5 C131.8,112.5 131.9,112.4 132,112.4 C132.2,112.3 132.5,112.2 132.7,112.1 C132.8,112.1 132.8,112 132.9,112 C133.5,111.8 134.1,111.5 134.7,111.3 C134.7,111.3 134.8,111.3 134.8,111.3 C135.1,111.2 135.3,111.1 135.6,111 C135.7,111 135.7,110.9 135.8,110.9 C136,110.8 136.2,110.7 136.5,110.6 C136.6,110.6 136.6,110.5 136.7,110.5 C136.9,110.4 137.1,110.3 137.4,110.2 C137.4,110.2 137.5,110.2 137.5,110.1 C138.3,109.7 139.1,109.3 139.8,108.9 C139.8,108.9 139.9,108.9 139.9,108.8 C140.1,108.7 140.3,108.6 140.5,108.5 C140.5,108.5 140.6,108.4 140.6,108.4 C140.8,108.3 141,108.2 141.2,108.1 C141.2,108.1 141.3,108.1 141.3,108 C141.8,107.7 142.2,107.5 142.6,107.2 L142.6,123.9 C142.5,126.9 137.2,131.5 125.4,135.4 C112.6,139.6 95.4,141.9 77,141.9 C58.6,141.9 41.5,139.6 28.6,135.4 C16.7,131.5 11.4,126.8 11.4,123.8 L11.4,123.3 L11.4,107.1 C11.4,107.1 11.5,107.1 11.5,107.2 C11.9,107.4 12.2,107.7 12.6,107.9 C12.7,108 12.9,108.1 13,108.1 C13.3,108.3 13.6,108.4 13.8,108.6 C14,108.7 14.1,108.8 14.3,108.9 C14.6,109.1 14.9,109.2 15.3,109.4 C15.4,109.5 15.5,109.5 15.7,109.6 C16.1,109.8 16.5,110 16.9,110.2 C17.1,110.3 17.3,110.4 17.4,110.4 C17.7,110.5 18,110.7 18.3,110.8 C18.5,110.9 18.7,111 18.8,111 C19.2,111.2 19.7,111.4 20.2,111.6 C20.4,111.7 20.5,111.7 20.7,111.8 C21,111.9 21.4,112.1 21.7,112.2 C21.9,112.3 22.1,112.4 22.3,112.4 C22.6,112.5 23,112.6 23.3,112.8 C23.5,112.9 23.7,112.9 23.8,113 C24.3,113.2 24.8,113.3 25.3,113.5 C25.5,113.6 25.7,113.6 25.9,113.7 C26.2,113.8 26.6,113.9 27,114 C27.1,114 27.3,114.1 27.4,114.1 C26.9,113.4 26.5,112.6 26,111.9 C24.2,108.7 22.8,105.1 22,101.3 C14.6,98 11.2,94.5 11.2,92.2 L11.2,91.7 L11.2,75.5 C11.2,75.5 11.3,75.5 11.3,75.6 C11.7,75.9 12.1,76.1 12.5,76.3 C12.5,76.3 12.5,76.3 12.6,76.3 C13,76.5 13.4,76.8 13.8,77 C13.9,77.1 14,77.1 14.1,77.2 C14.5,77.4 14.9,77.6 15.3,77.8 C15.4,77.8 15.4,77.9 15.5,77.9 C16,78.1 16.4,78.4 16.9,78.6 C17,78.6 17.1,78.7 17.2,78.7 C17.6,78.9 18,79.1 18.4,79.2 C18.5,79.2 18.6,79.3 18.7,79.3 C19.4,79.6 20.2,79.9 21,80.2 L21,69.1 C14.3,65.9 11.2,62.7 11.2,60.4 L11.2,59.8 L11.2,43.8 C11.3,43.9 11.4,43.9 11.4,43.9 C11.7,44.1 12,44.3 12.3,44.4 C12.4,44.5 12.6,44.6 12.7,44.6 C13.1,44.8 13.4,45 13.8,45.2 C13.9,45.2 13.9,45.3 14,45.3 C14.4,45.5 14.8,45.7 15.3,46 C15.4,46.1 15.6,46.1 15.7,46.2 C16,46.4 16.3,46.5 16.7,46.7 C16.8,46.8 17,46.8 17.1,46.9 C17.6,47.1 18,47.3 18.5,47.5 C18.6,47.5 18.7,47.6 18.8,47.6 C19.2,47.8 19.6,47.9 20,48.1 C20.2,48.2 20.3,48.2 20.5,48.3 C20.9,48.4 21.2,48.6 21.6,48.7 C21.7,48.8 21.9,48.8 22,48.9 C22.5,49.1 23,49.3 23.5,49.5 C23.5,49.5 23.5,49.5 23.5,49.5 C24.3,47.2 25.3,44.9 26.5,42.8 C27,41.9 27.5,41.1 28.1,40.3 C16.4,36.4 11.1,31.7 11.1,28.8 C11.1,25.9 16.4,21.1 28.3,17.2 C41.1,13 58.3,10.7 76.7,10.7 C95.1,10.7 112.2,13 125.1,17.2 C136.5,20.9 141.8,25.6 141.8,28.6 C141.8,28.5 141.8,28.5 141.8,28.6 Z"/>
      <path d="M121.8,42.7 C118.9,37.9 114.9,34.2 109.7,31.5 C104.5,28.9 98.3,27.6 91.3,27.6 L66,27.6 C58,27.6 51,29.1 45.1,32.2 C39.1,35.3 34.6,39.7 31.3,45.5 C28.1,51.2 26.5,57.9 26.5,65.6 L26.5,91 C26.5,97.7 27.9,103.6 30.8,108.7 C33.7,113.8 37.7,117.6 43,120.4 C48.3,123.1 54.5,124.5 61.7,124.5 L100,124.5 L100,114.3 L61.7,114.3 C54.4,114.3 48.6,112.2 44.2,108 C39.9,103.8 37.7,98.2 37.7,91.1 L37.7,65.7 C37.7,57.2 40.3,50.4 45.4,45.4 C50.5,40.3 57.4,37.8 66.1,37.8 L91.3,37.8 C98.5,37.8 104.3,39.8 108.6,43.7 C112.9,47.6 115.1,52.9 115.1,59.6 L115.1,80.6 C115.1,84.3 114.5,87.2 113.4,89.2 C112.3,91.2 110.6,92.2 108.5,92.2 L105.2,92.2 C103.3,92.2 101.9,91.5 100.9,90.2 C99.9,88.9 99.4,87.2 99.4,85 L99.4,50.7 L89.4,50.7 L89.4,55.8 C88.1,54 86.3,52.6 84.2,51.5 C82.1,50.4 80,49.9 77.8,49.9 L71.8,49.9 C65.4,49.9 60.3,51.9 56.5,55.8 C52.7,59.8 50.8,65 50.8,71.7 L50.8,82.7 C50.8,88.9 52.6,93.9 56.2,97.6 C59.8,101.3 64.5,103.1 70.4,103.1 L76.9,103.1 C79.9,103.1 82.8,102.2 85.6,100.5 C88.5,98.8 90.7,96.6 92.4,93.7 L92.5,93.7 C93.7,96.2 95.4,98.1 97.5,99.6 C99.7,101 102,101.8 104.4,101.8 L108.5,101.8 C114,101.8 118.3,99.9 121.3,96.1 C124.3,92.3 125.8,86.9 125.8,79.9 L125.8,59.5 C126.1,53.1 124.6,47.5 121.8,42.7 Z M88.4,80.9 C88.1,84.7 86.9,87.8 84.8,90.1 C82.8,92.4 80.2,93.5 77,93.5 L70.6,93.5 C68,93.5 65.8,92.5 64.2,90.5 C62.6,88.5 61.8,85.8 61.8,82.4 L61.8,71.8 C61.8,68.1 62.8,65.1 64.7,62.8 C66.6,60.6 69.3,59.4 72.5,59.4 L78.5,59.4 C81.2,59.4 83.5,60.3 85.3,62.1 C87.1,63.9 88.1,66.4 88.4,69.4 L88.4,80.9 L88.4,80.9 Z"/>
    </g>
  </g>
</svg>
