<?xml version="1.0" encoding="UTF-8" standalone="no"?>
<svg
   xmlns:dc="http://purl.org/dc/elements/1.1/"
   xmlns:cc="http://creativecommons.org/ns#"
   xmlns:rdf="http://www.w3.org/1999/02/22-rdf-syntax-ns#"
   xmlns:svg="http://www.w3.org/2000/svg"
   xmlns="http://www.w3.org/2000/svg"
   xmlns:sodipodi="http://sodipodi.sourceforge.net/DTD/sodipodi-0.dtd"
   xmlns:inkscape="http://www.inkscape.org/namespaces/inkscape"
   width="148"
   height="148"
   viewBox="0 0 148 148"
   version="1.1"
   id="svg4"
   sodipodi:docname="symbol-dark.svg"
   style="fill:none"
   inkscape:version="0.92.2 5c3e80d, 2017-08-06">
  <metadata
     id="metadata10">
    <rdf:RDF>
      <cc:Work
         rdf:about="">
        <dc:format>image/svg+xml</dc:format>
        <dc:type
           rdf:resource="http://purl.org/dc/dcmitype/StillImage" />
        <dc:title></dc:title>
      </cc:Work>
    </rdf:RDF>
  </metadata>
  <defs
     id="defs8" />
  <sodipodi:namedview
     pagecolor="#ffffff"
     bordercolor="#666666"
     borderopacity="1"
     objecttolerance="10"
     gridtolerance="10"
     guidetolerance="10"
     inkscape:pageopacity="0"
     inkscape:pageshadow="2"
     inkscape:window-width="1507"
     inkscape:window-height="1054"
     id="namedview6"
     showgrid="false"
     fit-margin-top="10"
     fit-margin-left="10"
     fit-margin-right="10"
     fit-margin-bottom="10"
     inkscape:zoom="1.3037281"
     inkscape:cx="83.940626"
     inkscape:cy="24.991445"
     inkscape:window-x="413"
     inkscape:window-y="66"
     inkscape:window-maximized="0"
     inkscape:current-layer="svg4" />
  <path
     d="M 73.9999,10 C 38.6843,10 10,38.6843 10,73.9999 c 0,9.0988 7.4024,16.5012 16.5012,16.5012 9.0988,0 16.5011,-7.4024 16.5011,-16.5012 0,-7.4024 4.935,-14.8048 14.188,-14.8048 2.9301,0 6.1686,1.0795 9.4072,2.9301 -4.9349,5.2434 -8.3277,11.5662 -8.3277,17.8891 0,9.5615 8.1735,15.4217 15.7301,15.4217 7.5566,0 15.7301,-5.8602 15.7301,-15.4217 0,-6.3229 -3.3928,-12.6457 -8.3277,-17.8891 3.2385,-1.8506 6.4771,-2.9301 9.4072,-2.9301 9.253,0 14.1879,7.4024 14.1879,14.8048 V 87.1083 H 114.25 V 73.9999 c 0,-13.7253 -10.0237,-24.0578 -23.4405,-24.0578 -5.2434,0 -11.2578,2.3132 -16.8096,6.0144 -5.3976,-3.7012 -11.5663,-6.0144 -16.8096,-6.0144 -13.4169,0 -23.4409,10.3325 -23.4409,24.0578 0,4.0096 -3.2386,7.2482 -7.2482,7.2482 -4.0097,0 -7.24821,-3.2386 -7.24821,-7.2482 0,-30.2265 24.52041,-54.74691 54.74691,-54.74691 30.2264,0 54.7471,24.52041 54.7471,54.74691 0,30.2264 -24.6749,54.7471 -54.7471,54.7471 -16.8096,0 -32.3855,-7.557 -42.8722,-20.8195 l -7.2482,5.7065 C 36.0626,129.055 54.2602,138 73.9999,138 109.3155,138 138,109.3155 138,73.9999 138,38.6843 109.3155,10 73.9999,10 Z m 6.4771,70.1685 c 0,3.8555 -3.3928,6.1687 -6.4771,6.1687 -3.0844,0 -6.4771,-2.3132 -6.4771,-6.1687 0,-3.8554 2.6217,-8.3277 6.4771,-12.1831 3.8554,3.8554 6.4771,8.3277 6.4771,12.1831 z"
     id="path2"
     inkscape:connector-curvature="0"
     style="fill:#311a57" />
</svg>
