<?xml version="1.0" encoding="utf-8"?>
<!-- Generator: Adobe Illustrator 23.0.1, SVG Export Plug-In . SVG Version: 6.00 Build 0)  -->
<svg version="1.1" id="Layer_1" xmlns="http://www.w3.org/2000/svg" xmlns:xlink="http://www.w3.org/1999/xlink" x="0px" y="0px"
	 viewBox="0 0 512 512" style="enable-background:new 0 0 512 512;" xml:space="preserve">
<style type="text/css">
	.st0{fill:#231F20;}
	.st1{fill:#E4504C;}
</style>
<g>
	<g>
		<path class="st0" d="M146.34,360.15c-3.11,0-5.63-2.52-5.63-5.63v-173.3H21.44V348.9h37.88c3.11,0,5.63,2.52,5.63,5.63
			c0,3.11-2.52,5.63-5.63,5.63H15.81c-3.11,0-5.63-2.52-5.63-5.63V175.6c0-3.11,2.52-5.63,5.63-5.63h130.53
			c3.11,0,5.63,2.52,5.63,5.63v178.93C151.97,357.64,149.45,360.15,146.34,360.15z"/>
	</g>
</g>
<g>
	<g>
		<path class="st1" d="M98.73,300.94H63.37l7.42-28.11c-4.25-3.31-6.66-8.47-6.39-13.98c0.41-8.5,7.39-15.46,15.89-15.85
			c4.62-0.22,8.99,1.42,12.32,4.6c3.33,3.18,5.17,7.47,5.17,12.08c0,5.05-2.32,9.81-6.19,12.96L98.73,300.94z M72.14,294.19h17.93
			l-6.22-24.63l2.2-1.28c3.07-1.78,4.97-5.07,4.97-8.6c0-2.74-1.09-5.3-3.08-7.19c-1.98-1.89-4.56-2.87-7.34-2.74
			c-5.06,0.23-9.21,4.38-9.46,9.43c-0.18,3.79,1.76,7.31,5.07,9.17l2.12,1.19l-0.83,4.32L72.14,294.19z"/>
	</g>
</g>
<g>
	<path class="st1" d="M187.91,198.9c1.42-2.16,3.39-3.83,5.94-5.01c2.54-1.17,5.52-1.76,8.93-1.76c3.29,0,6.23,0.58,8.81,1.73
		c2.58,1.15,4.58,2.79,6.01,4.9c1.43,2.12,2.16,4.55,2.21,7.29h-10.67c-0.05-1.57-0.71-2.83-2-3.8c-1.29-0.97-2.92-1.45-4.9-1.45
		c-1.75,0-3.15,0.4-4.21,1.21c-1.06,0.81-1.59,1.89-1.59,3.25c0,1.27,0.45,2.22,1.36,2.87c0.91,0.64,2.26,1.19,4.06,1.62l7.15,1.62
		c4.01,0.94,7.01,2.57,9.01,4.87c2,2.3,3,5.11,3,8.43c0,2.97-0.74,5.56-2.23,7.77c-1.48,2.21-3.58,3.92-6.28,5.13
		c-2.71,1.21-5.85,1.81-9.44,1.81c-5.36,0-9.71-1.3-13.04-3.9c-3.33-2.6-5.15-6.13-5.47-10.6h10.6c0.14,1.84,0.93,3.27,2.37,4.28
		c1.44,1.01,3.33,1.52,5.68,1.52c2.16,0,3.86-0.44,5.09-1.31c1.23-0.87,1.85-2.07,1.85-3.59c0-1.22-0.4-2.17-1.21-2.85
		c-0.81-0.68-1.93-1.19-3.38-1.54l-7.49-1.76c-4.24-0.99-7.34-2.61-9.31-4.87c-1.97-2.26-2.95-5-2.95-8.22
		C185.78,203.61,186.49,201.06,187.91,198.9z"/>
	<path class="st1" d="M260.82,206.53v31.91h-9.5v-3.66c-1.08,1.4-2.59,2.52-4.52,3.35s-4.03,1.24-6.28,1.24
		c-2.97,0-5.6-0.7-7.89-2.09c-2.29-1.39-4.06-3.34-5.3-5.84c-1.24-2.5-1.86-5.4-1.86-8.72c0-3.45,0.67-6.48,2-9.08
		c1.33-2.6,3.22-4.62,5.65-6.06c2.43-1.44,5.2-2.16,8.3-2.16c4.58,0,8.07,1.4,10.46,4.21l0.66-3.11H260.82z M248.75,228.23
		c1.44-1.48,2.16-3.46,2.16-5.92c0-2.39-0.72-4.32-2.16-5.78c-1.44-1.46-3.31-2.19-5.61-2.19s-4.14,0.74-5.52,2.23
		c-1.38,1.48-2.07,3.42-2.07,5.82c0,2.39,0.7,4.34,2.09,5.84c1.39,1.5,3.23,2.24,5.51,2.24
		C245.44,230.46,247.31,229.72,248.75,228.23z"/>
	<path class="st1" d="M275.94,206.53l3.25,9.5c0.76,2.16,1.5,4.49,2.23,6.99c0.72,2.5,1.2,4.13,1.43,4.89
		c0.28-0.81,0.85-2.5,1.73-5.09c0.87-2.59,1.69-4.85,2.45-6.79l3.63-9.5h10.19l-13.36,31.91h-9.7l-12.43-31.91H275.94z"/>
	<path class="st1" d="M329.71,236.28c-2.95,2.06-6.47,3.09-10.57,3.09c-3.34,0-6.28-0.71-8.84-2.12s-4.54-3.41-5.94-5.97
		c-1.4-2.57-2.11-5.53-2.11-8.89c0-3.38,0.7-6.37,2.11-8.94c1.4-2.58,3.38-4.56,5.94-5.94c2.56-1.38,5.43-2.07,8.63-2.07
		c3.15,0,5.96,0.66,8.41,1.97c2.45,1.31,4.35,3.14,5.7,5.47c1.35,2.34,2.02,4.99,2.02,7.96c0,1.66-0.14,3.1-0.41,4.32h-22.65
		c0.09,1.89,0.79,3.4,2.09,4.52c1.3,1.13,2.99,1.69,5.06,1.69c1.57,0,2.91-0.29,4.04-0.88c1.13-0.59,1.9-1.35,2.31-2.3h9.63
		C334.46,231.52,332.65,234.22,329.71,236.28z M324.94,218.72c-0.05-1.61-0.66-2.89-1.85-3.83c-1.19-0.94-2.69-1.42-4.51-1.42
		c-1.84,0-3.36,0.47-4.54,1.42c-1.19,0.94-1.82,2.22-1.92,3.83H324.94z"/>
	<path d="M194.14,277.96l4.32,14.23c1.22,3.96,2.18,7.37,2.87,10.22c0.69,2.85,1.04,4.37,1.04,4.56c0.62-1.89,2.29-7.62,5.01-17.2
		l3.11-10.6h11.33l6.22,21.2l1.9,6.6c0-0.18,0.35-1.7,1.04-4.56c0.69-2.85,1.65-6.26,2.87-10.22l4.39-14.23h11.02l-14.4,45.34
		h-10.05l-2.69-8.91c-0.99-3.25-2.14-7.1-3.44-11.55c-1.3-4.45-2.14-7.42-2.5-8.89c-0.37,1.4-1.18,4.35-2.43,8.84
		c-1.26,4.49-2.4,8.36-3.44,11.6l-2.76,8.91h-10.05l-14.4-45.34H194.14z"/>
	<path d="M254,284.9c-1.28-1.22-1.92-2.7-1.92-4.45c0-1.8,0.63-3.29,1.88-4.49c1.25-1.2,2.83-1.8,4.71-1.8c1.89,0,3.45,0.6,4.7,1.8
		c1.24,1.2,1.86,2.69,1.86,4.49c0,1.7-0.63,3.18-1.9,4.42c-1.27,1.24-2.82,1.86-4.66,1.86C256.83,286.73,255.28,286.12,254,284.9z
		 M253.74,291.39h9.88v31.91h-9.88V291.39z"/>
	<path d="M271.18,274.78h9.88v48.52h-9.88V274.78z"/>
	<path d="M288.68,274.78h9.88v48.52h-9.88V274.78z"/>
	<path d="M338.13,282.07c2.83,2.74,4.25,6.45,4.25,11.12c0,2.97-0.63,5.59-1.9,7.87c-1.27,2.28-3.11,4.06-5.54,5.33
		c-2.43,1.28-5.32,1.92-8.68,1.92h-8.7v14.99h-10.32v-45.34h19.23C331.41,277.96,335.3,279.33,338.13,282.07z M329.76,297.55
		c1.16-1.28,1.74-2.81,1.74-4.61c0-1.57-0.58-2.96-1.74-4.18c-1.16-1.22-2.94-1.83-5.33-1.83h-6.87v12.53h6.8
		C326.79,299.47,328.59,298.83,329.76,297.55z"/>
	<path d="M347.64,298.49c1.48-2.59,3.57-4.6,6.25-6.04c2.68-1.44,5.77-2.16,9.27-2.16c3.5,0,6.58,0.72,9.24,2.16
		c2.66,1.44,4.73,3.45,6.22,6.04c1.48,2.59,2.23,5.53,2.23,8.82c0,3.25-0.74,6.16-2.23,8.74c-1.48,2.58-3.57,4.59-6.27,6.03
		c-2.69,1.44-5.75,2.16-9.18,2.16c-3.5,0-6.59-0.72-9.27-2.16c-2.68-1.44-4.77-3.45-6.25-6.03c-1.48-2.58-2.23-5.49-2.23-8.74
		C345.42,304.02,346.16,301.08,347.64,298.49z M357.62,313.16c1.42,1.53,3.26,2.3,5.54,2.3c2.26,0,4.09-0.77,5.51-2.3
		c1.42-1.53,2.12-3.5,2.12-5.92c0-2.39-0.7-4.35-2.09-5.85c-1.39-1.51-3.24-2.26-5.54-2.26s-4.16,0.75-5.56,2.26
		c-1.4,1.51-2.11,3.46-2.11,5.85C355.5,309.66,356.21,311.63,357.62,313.16z"/>
	<path d="M393.28,291.39l2.04,7.29c1.31,4.72,2.28,8.56,2.9,11.53c0.09-0.32,1.68-5.74,4.77-16.26l0.55-1.9h10.46
		c0.41,1.45,1.12,4.04,2.12,7.77s1.94,7.41,2.81,11.05c0.71-3.11,1.78-7.1,3.21-11.98l2.18-7.49h10.46l-11.22,31.91h-9.63
		c-2.3-7.73-4.05-14.08-5.25-19.03c-0.23,1.04-0.85,3.41-1.86,7.11c-1.01,3.71-2.18,7.68-3.49,11.91h-10.05l-10.67-31.91H393.28z"/>
	<path d="M463.99,321.14c-2.95,2.06-6.47,3.09-10.57,3.09c-3.34,0-6.28-0.71-8.84-2.12s-4.54-3.41-5.94-5.97
		c-1.4-2.57-2.11-5.53-2.11-8.89c0-3.38,0.7-6.37,2.11-8.94c1.4-2.58,3.38-4.56,5.94-5.94c2.56-1.38,5.43-2.07,8.63-2.07
		c3.15,0,5.96,0.66,8.41,1.97c2.45,1.31,4.35,3.14,5.7,5.47c1.35,2.34,2.02,4.99,2.02,7.96c0,1.66-0.14,3.1-0.41,4.32h-22.65
		c0.09,1.89,0.79,3.4,2.09,4.52c1.3,1.13,2.99,1.69,5.06,1.69c1.57,0,2.91-0.29,4.04-0.88c1.13-0.59,1.9-1.35,2.31-2.3h9.63
		C468.75,316.38,466.94,319.08,463.99,321.14z M459.23,303.58c-0.05-1.61-0.66-2.89-1.85-3.83c-1.19-0.94-2.69-1.42-4.51-1.42
		c-1.84,0-3.36,0.47-4.54,1.42c-1.19,0.94-1.82,2.22-1.92,3.83H459.23z"/>
	<path d="M495.21,291.39v8.56c-0.32-0.05-0.82-0.07-1.48-0.07c-2.83,0-5.01,0.74-6.54,2.23c-1.53,1.48-2.3,3.57-2.3,6.27v14.92
		h-9.88v-31.91h9.05l0.62,4.32c0.53-1.52,1.46-2.66,2.8-3.44c1.33-0.77,2.92-1.16,4.77-1.16
		C493.27,291.11,494.26,291.21,495.21,291.39z"/>
</g>
</svg>
