<svg viewBox="0 5 140 42" fill="none" xmlns="http://www.w3.org/2000/svg">
<path d="M25 6C13.9639 6 5 14.9639 5 26C5 28.8434 7.31325 31.1566 10.1566 31.1566C13 31.1566 15.3133 28.8434 15.3133 26C15.3133 23.6867 16.8554 21.3735 19.747 21.3735C20.6627 21.3735 21.6747 21.7108 22.6867 22.2892C21.1446 23.9277 20.0843 25.9036 20.0843 27.8795C20.0843 30.8675 22.6386 32.6988 25 32.6988C27.3614 32.6988 29.9157 30.8675 29.9157 27.8795C29.9157 25.9036 28.8554 23.9277 27.3133 22.2892C28.3253 21.7108 29.3374 21.3735 30.253 21.3735C33.1446 21.3735 34.6867 23.6867 34.6867 26V30.3373H37.5783V26C37.5783 21.7108 34.4458 18.4819 30.253 18.4819C28.6145 18.4819 26.7349 19.2048 25 20.3614C23.3133 19.2048 21.3855 18.4819 19.747 18.4819C15.5542 18.4819 12.4217 21.7108 12.4217 26C12.4217 27.253 11.4096 28.2651 10.1566 28.2651C8.90361 28.2651 7.89157 27.253 7.89157 26C7.89157 16.5542 15.5542 8.89157 25 8.89157C34.4458 8.89157 42.1084 16.5542 42.1084 26C42.1084 35.4458 34.3976 43.1084 25 43.1084C19.747 43.1084 14.8795 40.747 11.6024 36.6024L9.33735 38.3855C13.1446 43.2048 18.8313 46 25 46C36.0361 46 45 37.0361 45 26C45 14.9639 36.0361 6 25 6ZM27.0241 27.9277C27.0241 29.1325 25.9639 29.8554 25 29.8554C24.0361 29.8554 22.9759 29.1325 22.9759 27.9277C22.9759 26.7229 23.7952 25.3253 25 24.1205C26.2048 25.3253 27.0241 26.7229 27.0241 27.9277Z" fill="#F96443"/>
<path d="M69.6747 23.3494V30.3374H67.4578V24.2169C67.4578 22.5783 66.8795 21.8554 65.7711 21.8554C64.4217 21.8554 63.5542 23.0602 63.5542 24.8916V30.3374H61.3855V24.2169C61.3855 22.6265 60.8554 21.8554 59.6988 21.8554C58.3012 21.8554 57.4819 23.0602 57.4819 24.8916V30.3374H55.2651V20.0723H57.0964L57.241 21.4217H57.3373C57.9639 20.4096 58.7831 19.8313 60.2771 19.8313C61.7711 19.8313 62.6867 20.6506 63.1205 21.6145H63.1687C63.6506 20.6024 64.759 19.8313 66.3012 19.8313C68.759 19.8795 69.6747 21.5181 69.6747 23.3494Z" fill="#F96443"/>
<path d="M79.1205 23.494V30.3373H77.3855L77.1446 28.9879H77.0964C76.5181 29.9518 75.506 30.5783 74.0602 30.5783C72.0361 30.5783 71.0241 29.4699 71.0241 27.7349C71.0241 26.1446 71.8434 25.0361 74.2048 24.506C76.6145 24.0241 77 23.6867 77 23.0602C77 22.3855 76.4699 21.8554 75.2169 21.8554C74.012 21.8554 73 22.6747 72.3735 23.7831H72.2771L71.1205 21.9518C71.9398 20.747 73.3855 19.8795 75.2169 19.8795C77.5301 19.8795 79.1205 21.1807 79.1205 23.494ZM76.9036 25.2771C76.7108 25.6626 76.1325 25.9036 74.7831 26.1928C73.4337 26.4819 73.0964 26.9639 73.0964 27.5422C73.0964 28.2169 73.5783 28.6024 74.3976 28.6024C75.6988 28.6024 76.9518 27.7831 76.9518 26.7229L76.9036 25.2771Z" fill="#F96443"/>
<path d="M83.1205 30.3374L79.5542 20.0723H81.9639L84.5663 28.2651H84.6145L87.2651 20.0723H89.6747L86.0602 30.3374H83.1205Z" fill="#F96443"/>
<path d="M98.8795 25.1325C98.8795 25.4217 98.8795 25.9036 98.8795 25.9036H91.6988C91.747 27.3976 92.8072 28.5542 94.3494 28.5542C95.6988 28.5542 96.8072 27.5904 97.2892 26.8675H97.3855L98.3976 28.8434C97.8675 29.6145 96.3735 30.6265 94.3494 30.6265C91.3132 30.6265 89.4337 28.4578 89.4337 25.2771C89.4337 22.0964 91.5542 19.9277 94.2048 19.9277C96.8554 19.8795 98.8795 22 98.8795 25.1325ZM91.747 24.1205H96.5663C96.4699 22.9639 95.6024 21.8554 94.1566 21.8554C92.7108 21.8554 91.8916 23.0602 91.747 24.1205Z" fill="#F96443"/>
<path d="M109.048 23.494V30.3374H106.831V24.1205C106.831 22.6747 106.205 21.9036 104.904 21.9036C103.361 21.9036 102.398 23.1084 102.398 25.0843V30.3374H100.181V20.0723H102.012L102.157 21.4217H102.205C102.88 20.4578 103.94 19.8313 105.337 19.8313C107.843 19.8795 109.048 21.5663 109.048 23.494Z" fill="#F96443"/>
<path d="M120.133 25.2771C120.133 28.2651 118.301 30.5783 115.169 30.5783C112.036 30.5783 110.205 28.3132 110.205 25.2771C110.205 22.241 112.373 19.8795 115.169 19.8795C117.964 19.8795 120.133 22.1928 120.133 25.2771ZM112.422 25.2771C112.422 27.1566 113.434 28.506 115.169 28.506C116.904 28.506 117.916 27.1084 117.916 25.2289C117.916 23.494 116.855 21.8554 115.169 21.8554C113.482 21.8554 112.422 23.494 112.422 25.2771Z" fill="#F96443"/>
<path d="M123.94 17.2771C123.94 18.1446 123.41 18.7229 122.494 18.7229C121.53 18.7229 121 18.0964 121 17.2771C121 16.4578 121.53 15.8313 122.494 15.8313C123.41 15.8313 123.94 16.4578 123.94 17.2771ZM121.386 30.3374V20.0723H123.602V30.3374H121.386Z" fill="#F96443"/>
<path d="M132.807 30.3373L132.566 28.9879H132.518C131.94 29.9036 130.928 30.5783 129.434 30.5783C126.542 30.5783 124.904 28.3132 124.904 25.2771C124.904 22.241 126.831 19.8795 129.482 19.8795C130.735 19.8795 131.843 20.4578 132.325 21.1807H132.373V16.747H134.59V30.3373H132.807ZM127.072 25.2289C127.072 27.0602 127.94 28.506 129.723 28.506C131.41 28.506 132.422 27.2048 132.422 25.2771C132.422 23.3494 131.458 21.8554 129.723 21.8554C127.988 21.8554 127.072 23.5422 127.072 25.2289Z" fill="#F96443"/>
</svg>
