<?xml version="1.0" encoding="UTF-8"?>
<svg width="100%" height="100%" viewBox="0 0 165 37" version="1.1" xmlns="http://www.w3.org/2000/svg">
    <g stroke="none" stroke-width="1" fill="none" fill-rule="evenodd">
        <g transform="translate(-30.000000, -20.000000)" fill-rule="nonzero" fill="#F8B333">
            <g transform="translate(30.000000, 20.000000)">
                <g>
                    <path d="M17.8847602,30.2249665 C16.820908,28.8631153 15.5764017,26.5662617 15.0745846,25.0011491 C11.0199028,25.0011491 6.10209551,21.728641 6.10209551,15.2649293 C6.10209551,9.81752442 9.31372473,5.58968782 15.054512,5.58968782 C20.5142816,5.58968782 24.0470738,10.2240472 24.0470738,15.3868861 C24.0470738,20.6310296 20.7952992,23.9035377 18.4467953,23.9035377 C18.4467953,23.9035377 20.2332641,28.375288 24.1474372,31.6071438 C25.8536152,33.0096473 30.0889512,36.058568 34.0432697,36.9732441 L34.7658863,35.9975895 C29.727643,33.9853019 26.0141967,30.8754029 26.0141967,28.0297436 C26.0141967,26.3426742 26.4557957,25.4889764 27.3590664,24.1677775 C29.2258259,21.5050535 30.1090239,18.476459 30.1090239,15.5088429 C30.1090239,6.66697311 23.3043845,0 14.9742212,0 C6.94514818,0 0,6.66697311 0,15.2852554 C0,24.2694082 7.98892768,32.074645 17.8847602,30.2249665 Z"></path>
                    <path d="M52.4247492,8.82943144 L52.4247492,27.8382054 L47.0435621,27.8382054 L47.0435621,25.4952161 L46.961719,25.4952161 C45.4476207,27.2473646 43.2583165,28.1438127 41.0076299,28.1438127 C36.6904039,28.1438127 33.6622074,26.0860569 33.6622074,20.2795182 L33.6622074,8.82943144 L39.0024728,8.82943144 L39.0024728,18.9144723 C39.0024728,22.4187693 40.1073553,23.5800771 42.6240321,23.5800771 C44.9565619,23.5800771 47.0640229,21.7056856 47.0640229,18.0587719 L47.0640229,8.82943144 L52.4247492,8.82943144 L52.4247492,8.82943144 Z"></path>
                    <path d="M74.4983278,8.59816262 L74.4983278,27.2914383 L69.7646066,27.2914383 L69.7646066,25.0274081 L69.6447656,25.0274081 C68.3864346,26.6703326 66.4689779,27.5919732 64.0721571,27.5919732 C58.9189923,27.5919732 55.1839465,23.7651612 55.1839465,17.9748539 C55.1839465,12.3047607 58.9589393,8.27759197 63.9722896,8.27759197 C66.1893488,8.27759197 68.086832,9.07901858 69.425057,10.6818718 L69.544898,10.6818718 L69.544898,8.57812695 L74.4983278,8.57812695 L74.4983278,8.59816262 Z M69.7446331,18.0149253 C69.7446331,15.0296112 67.7672559,12.765581 65.0508589,12.765581 C62.374409,12.765581 60.2372438,14.7891832 60.2372438,18.0149253 C60.2372438,21.0403107 62.214621,23.1039842 65.0109119,23.1039842 C67.6074678,23.1039842 69.7446331,21.080382 69.7446331,18.0149253 Z"></path>
                    <path d="M97.1237458,16.2964183 L97.1237458,27.5919732 L91.8630331,27.5919732 L91.8630331,17.5989688 C91.8630331,13.9762503 90.5428543,12.856871 88.082521,12.856871 C85.4421633,12.856871 83.6219167,14.6478779 83.6219167,18.0263682 L83.6219167,27.5919732 L78.361204,27.5919732 L78.361204,8.60322959 L83.6419194,8.60322959 L83.6419194,11.0455117 L83.7219302,11.0455117 C85.322147,9.21380013 87.5824532,8.27759197 89.9827784,8.27759197 C94.2033502,8.29794432 97.1237458,10.4756459 97.1237458,16.2964183 Z"></path>
                    <path d="M120.301003,0.0201107677 L120.301003,27.2903117 L115.454607,27.2903117 L115.454607,25.017795 L115.354475,25.017795 C114.03273,26.6668779 112.050113,27.5919732 109.526783,27.5919732 C104.279858,27.5919732 100.434783,23.7508166 100.434783,17.9388048 C100.434783,12.2474575 104.279858,8.20519321 109.366571,8.20519321 C111.689638,8.20519321 113.672254,9.00962392 115.074105,10.6184853 L115.194263,10.6184853 L115.194263,0 L120.301003,0 L120.301003,0.0201107677 Z M115.474633,17.9790263 C115.474633,14.9825219 113.371858,12.7100052 110.468025,12.7100052 C107.74443,12.7100052 105.621629,14.7411927 105.621629,17.9790263 C105.621629,21.0157522 107.644298,23.0871613 110.468025,23.0871613 C113.271726,23.0871613 115.474633,21.0559738 115.474633,17.9790263 Z"></path>
                    <path d="M123.060201,17.9347826 C123.060201,12.344832 127.029374,8.27759197 132.972956,8.27759197 C138.79441,8.27759197 142.926421,12.1845467 142.926421,17.9347826 C142.926421,23.6850185 138.79441,27.5919732 132.972956,27.5919732 C127.029374,27.5919732 123.060201,23.5247332 123.060201,17.9347826 Z M137.817383,17.9347826 C137.817383,14.8693258 135.761555,12.765581 132.952602,12.765581 C130.041875,12.765581 128.08782,14.9895398 128.08782,17.9347826 C128.08782,20.8399541 130.123293,23.1039842 132.952602,23.1039842 C135.680136,23.1039842 137.817383,20.9601681 137.817383,17.9347826 Z"></path>
                    <path d="M145.133779,17.9347826 C145.133779,12.344832 149.102952,8.27759197 155.046535,8.27759197 C160.867989,8.27759197 165,12.1845467 165,17.9347826 C165,23.6850185 160.867989,27.5919732 155.046535,27.5919732 C149.102952,27.5919732 145.133779,23.5247332 145.133779,17.9347826 Z M159.890962,17.9347826 C159.890962,14.8693258 157.835134,12.765581 155.02618,12.765581 C152.115453,12.765581 150.161399,14.9895398 150.161399,17.9347826 C150.161399,20.8399541 152.196872,23.1039842 155.02618,23.1039842 C157.753715,23.1039842 159.890962,20.9601681 159.890962,17.9347826 Z"></path>
                </g>
            </g>
        </g>
    </g>
</svg>