<svg xmlns="http://www.w3.org/2000/svg" viewBox="0 0 180 47" class="flex-grow-0 w-auto h-12 sm:h-14 max-w-full"><g fill="none" fill-rule="evenodd"><path stroke="#000" stroke-width=".602" d="M.69 1.23h44.83v44.83H.69z"></path><path stroke="#000" stroke-width=".602" d="M8.183 41.48L12.77 4.144 50.106 8.73l-4.585 37.338z"></path><path stroke="#000" stroke-width=".602" d="M15.661 37.454L24.264 7.6l29.855 8.603-8.603 29.855z"></path><path fill="#FF8000" fill-rule="nonzero" d="M24.512 34.194l11.86-21.014 21.014 11.86-11.86 21.014z"></path><g fill="#000" fill-rule="nonzero"><path d="M78.75 5.96c.87.74 1.3 1.76 1.3 3.04 0 .42-.03.81-.1 1.17-.24 1.44-.85 2.6-1.83 3.5-.98.9-2.26 1.45-3.83 1.67l3.57 7.37h-2.61l-3.4-7.3h-2.48l-1.29 7.3h-2.31l3.14-17.87h5.88c1.78 0 3.09.37 3.96 1.12zm-1.08 3.49c0-1.74-1.13-2.61-3.4-2.61H70.9l-1.22 6.89h3.37c2.6 0 4.11-1.15 4.54-3.45.06-.29.08-.57.08-.83zm17.61-3.91c1.13.62 2 1.49 2.61 2.61.61 1.12.91 2.43.91 3.92 0 .71-.06 1.39-.18 2.05-.3 1.71-.92 3.23-1.86 4.56a9.931 9.931 0 01-3.52 3.12c-1.41.74-2.95 1.12-4.63 1.12-1.55 0-2.9-.31-4.03-.92-1.13-.62-2-1.49-2.6-2.61-.6-1.12-.9-2.42-.9-3.89 0-.73.06-1.42.18-2.08.3-1.71.92-3.23 1.86-4.56.94-1.33 2.12-2.37 3.54-3.12a9.877 9.877 0 014.64-1.12c1.52-.01 2.84.3 3.98.92zM87.69 7.6c-1.06.56-1.95 1.36-2.67 2.41-.73 1.05-1.22 2.26-1.47 3.65-.1.56-.15 1.1-.15 1.62 0 1.69.49 3.02 1.47 4s2.3 1.47 3.95 1.47c1.2 0 2.33-.28 3.38-.85 1.06-.57 1.95-1.37 2.69-2.42.74-1.05 1.22-2.26 1.46-3.65.1-.56.15-1.1.15-1.62 0-1.69-.49-3.02-1.47-3.99-.98-.97-2.29-1.46-3.93-1.46-1.22.01-2.36.29-3.41.84zM102.52 20.91h6.34l-.33 1.8h-8.64l3.14-17.87h2.31zM113.52 20.91h6.34l-.33 1.8h-8.64l3.14-17.87h2.31zM127.33 4.84l-3.14 17.87h-2.31l3.14-17.87zM141.77 22.71h-2.31l-6.79-14.12-2.48 14.12h-2.31l3.14-17.87h2.31l6.79 14.14 2.48-14.14h2.31zM161.09 6.24c1.22 1.05 1.93 2.44 2.15 4.18h-2.43c-.22-1.08-.76-1.95-1.63-2.61-.87-.66-1.99-.99-3.36-.99-1.22 0-2.35.28-3.41.85s-1.95 1.37-2.69 2.42c-.73 1.05-1.23 2.28-1.48 3.7-.1.58-.15 1.13-.15 1.67 0 1.69.49 3.01 1.48 3.95.99.95 2.32 1.42 3.99 1.42 1.1 0 2.15-.24 3.14-.71 1-.47 1.86-1.16 2.6-2.07.73-.9 1.27-1.96 1.61-3.18h-7.02l.3-1.72h9l-.38 2.13c-.41 1.49-1.07 2.8-1.99 3.94a9.745 9.745 0 01-3.4 2.69c-1.34.65-2.82.98-4.42.98-1.5 0-2.8-.3-3.9-.9-1.1-.6-1.94-1.45-2.53-2.53-.59-1.09-.89-2.35-.89-3.79 0-.68.06-1.33.18-1.98.3-1.76.95-3.32 1.93-4.68.98-1.36 2.2-2.42 3.65-3.19 1.45-.77 3.03-1.15 4.74-1.15 2.05-.01 3.69.52 4.91 1.57z"></path></g><g fill="#000" fill-rule="nonzero"><path d="M68.32 27.87l2.76 15.31 8.21-15.31h2.51l-9.7 17.86h-2.91l-3.4-17.87h2.53zM86.11 29.74l-1.06 6.11h6.79l-.33 1.77h-6.79l-1.09 6.23h7.55l-.33 1.88h-9.86l3.14-17.87h9.86l-.33 1.88h-7.55zM106.78 28.98c.87.74 1.31 1.76 1.31 3.04 0 .42-.03.81-.1 1.17-.24 1.44-.85 2.6-1.82 3.5-.98.9-2.26 1.45-3.83 1.67l3.57 7.38h-2.61l-3.4-7.3h-2.48l-1.29 7.3h-2.31l3.14-17.87h5.88c1.76 0 3.07.37 3.94 1.11zm-1.08 3.5c0-1.74-1.13-2.61-3.4-2.61h-3.37l-1.22 6.89h3.37c2.6 0 4.11-1.15 4.54-3.45.06-.3.08-.58.08-.83zm14.04 11.19c-.51.67-1.19 1.21-2.05 1.62-.86.41-1.87.62-3.02.62-1.23 0-2.29-.22-3.17-.67-.88-.45-1.54-1.05-1.99-1.8-.45-.75-.66-1.59-.65-2.52h2.46c-.03.51.06 1 .29 1.48.23.48.6.88 1.12 1.19.52.31 1.18.47 1.99.47 1.1 0 1.96-.33 2.6-.99.63-.66.95-1.47.95-2.43 0-.64-.16-1.17-.49-1.58-.33-.41-.73-.74-1.22-.99-.48-.24-1.15-.53-1.99-.85-.96-.36-1.73-.68-2.29-.99-.57-.3-1.05-.73-1.44-1.28-.4-.55-.6-1.26-.6-2.14 0-.39.03-.78.1-1.17.2-1.2.84-2.17 1.91-2.9 1.07-.74 2.41-1.1 4.02-1.1 1.81 0 3.18.44 4.12 1.31.94.87 1.43 1.95 1.48 3.23h-2.46c-.02-.71-.29-1.33-.81-1.88-.52-.54-1.33-.81-2.41-.81-1.01 0-1.84.26-2.47.79-.63.52-.95 1.28-.95 2.28 0 .59.16 1.08.47 1.47.31.39.7.7 1.17.93.46.23 1.11.49 1.94.8.96.35 1.74.69 2.33 1 .59.31 1.09.76 1.51 1.33.41.58.62 1.32.62 2.23 0 .34-.04.74-.13 1.22-.12.75-.43 1.46-.94 2.13zM128.39 27.87l-3.14 17.87h-2.31l3.14-17.87h2.31zM143.95 28.56c1.13.62 2 1.49 2.61 2.61.61 1.12.91 2.43.91 3.92 0 .71-.06 1.39-.18 2.05-.3 1.71-.93 3.23-1.86 4.56a9.931 9.931 0 01-3.52 3.12c-1.41.74-2.95 1.12-4.62 1.12-1.55 0-2.9-.31-4.03-.92-1.13-.62-2-1.49-2.6-2.61-.6-1.12-.9-2.42-.9-3.89 0-.73.06-1.42.18-2.08.3-1.71.93-3.23 1.86-4.56.94-1.33 2.12-2.37 3.54-3.12a9.877 9.877 0 014.64-1.12c1.51 0 2.83.31 3.97.92zm-7.59 2.07c-1.06.56-1.95 1.36-2.67 2.41-.73 1.05-1.22 2.26-1.47 3.65-.1.56-.15 1.1-.15 1.62 0 1.69.49 3.02 1.47 4s2.3 1.47 3.95 1.47c1.2 0 2.33-.28 3.38-.85 1.06-.57 1.95-1.37 2.69-2.42.74-1.05 1.22-2.26 1.46-3.65.1-.56.15-1.1.15-1.62 0-1.69-.49-3.02-1.47-3.99-.98-.97-2.29-1.46-3.93-1.46-1.22 0-2.36.28-3.41.84zM162.15 45.73h-2.31l-6.79-14.12-2.48 14.12h-2.31l3.14-17.87h2.31L160.5 42l2.48-14.14h2.31zM177 43.67c-.51.67-1.19 1.21-2.05 1.62-.86.41-1.87.62-3.02.62-1.23 0-2.29-.22-3.17-.67-.88-.45-1.54-1.05-1.99-1.8-.45-.75-.66-1.59-.65-2.52h2.46c-.03.51.06 1 .29 1.48.23.48.6.88 1.12 1.19.52.31 1.18.47 1.99.47 1.1 0 1.96-.33 2.6-.99.63-.66.95-1.47.95-2.43 0-.64-.16-1.17-.49-1.58-.33-.41-.73-.74-1.22-.99-.48-.24-1.15-.53-1.99-.85-.96-.36-1.73-.68-2.29-.99-.57-.3-1.05-.73-1.44-1.28-.4-.55-.6-1.26-.6-2.14 0-.39.03-.78.1-1.17.2-1.2.84-2.17 1.91-2.9 1.07-.74 2.41-1.1 4.02-1.1 1.81 0 3.18.44 4.12 1.31.94.87 1.43 1.95 1.48 3.23h-2.46c-.02-.71-.29-1.33-.81-1.88-.52-.54-1.33-.81-2.41-.81-1.01 0-1.84.26-2.47.79-.63.52-.95 1.28-.95 2.28 0 .59.16 1.08.47 1.47.31.39.7.7 1.17.93.46.23 1.11.49 1.94.8.96.35 1.74.69 2.33 1 .59.31 1.09.76 1.51 1.33.41.58.62 1.32.62 2.23 0 .34-.04.74-.13 1.22-.12.75-.43 1.46-.94 2.13z"></path></g></g></svg>