<?xml version="1.0" encoding="utf-8"?><svg xmlns="http://www.w3.org/2000/svg" viewBox="-10 -10 204 47"><defs><path id="prefix__a" d="M.665.093h17.393v25.43H.665z"></path><path id="prefix__c" d="M.489.54h24.535v24.518H.489z"></path></defs><g fill="none" fill-rule="evenodd"><path fill="#1d2023" d="M54.169 23.787h-.435c-.97 0-1.374-.353-1.374-2.544V4.355c0-2.192.405-2.544 1.374-2.544h.435c.343 0 .565-.249.565-.634 0-.396-.21-.632-.565-.632h-5.954c-.788-.003-.753 1.35.1 1.266.805 0 1.34.432 1.34 2.544v7.505h-16.22V4.355c0-2.112.537-2.544 1.342-2.544.853.084.887-1.27.1-1.266h-5.954c-.355 0-.566.236-.566.632 0 .385.223.634.566.634h.434c.97 0 1.375.352 1.375 2.544v16.888c0 2.191-.405 2.544-1.375 2.544h-.434c-.343 0-.566.248-.566.634 0 .396.211.632.566.632h5.954c.787.003.753-1.35-.1-1.266-.805 0-1.341-.432-1.341-2.544v-8.43h16.22v8.43c0 2.112-.536 2.544-1.34 2.544-.854-.084-.889 1.27-.101 1.266h5.954c.354 0 .565-.236.565-.632 0-.386-.222-.634-.565-.634m102.046-1.822c-1.946 1.441-4.585 1.961-8.423 1.954-1.86-.004-4.05.024-4.93-.18-.541-.125-.753-.71-.821-1.122-.15-.91-.149-3.312-.113-9.81.035-6.285-.176-9.52.2-10.458.456-1.139 2.055-.875 5.664-.846 8.038.066 12.163 5.394 12.27 11.38.066 3.612-1.15 7.083-3.847 9.082m1.068-19.625c-2.085-1.21-4.68-1.8-7.928-1.8h-11.94l-.025.002c-.358.045-.542.257-.542.632 0 .366.24.632.567.632h.3c.469 0 .879.038 1.125.367.267.359.384 1.06.384 2.182v16.89c0 1.125-.111 1.825-.386 2.184-.248.323-.676.38-1.123.358h-.266c-.345 0-.567.249-.567.633 0 .396.212.633.567.633h13.145c3.745 0 6.919-1.13 9.179-3.27 2.265-2.141 3.461-5.15 3.461-8.702 0-4.626-2.168-8.54-5.951-10.74"></path><g transform="translate(165.773)"><path fill="#1d2023" d="M9.766 25.521c-1.557.02-3.099-.337-4.998-1.049-.35-.125-.526-.188-.655-.188a.632.632 0 00-.217.042.908.908 0 00-.495.457l-.01.017c-.062.161-.236.253-.483.253-.358 0-.475-.163-.588-.503-.251-.715-1.415-5.694-1.602-6.432-.18-.42.117-.868.618-.853.316 0 .439.2.552.425.018.035.033.071.047.108 1.39 3.968 4.329 6.26 8.065 6.257 4.381.092 7.453-4.01 5.006-7.412-.794-.92-2.052-1.596-3.084-2.144-1.994-.906-5.8-2.67-6.913-3.46-1.781-1.186-2.8-3.038-2.8-5.083C2.321.116 8.975-.796 13.765.774c.596.195 1.155.39 1.684.697.709.408 1.253 3.022 1.28 3.146.089.389.058.879-.443.868-.251 0-.53-.207-.828-.616-1.705-2.263-3.743-3.364-6.229-3.364-1.28 0-2.45.389-3.293 1.095-1.317 1.062-1.71 3.04-.789 4.453.57.948 1.4 1.524 3.559 2.469 3.926 1.854 9.325 3.351 9.35 8.342.061 4.4-3.935 7.746-8.291 7.657"></path></g><g><path fill="#1d2023" d="M24.94 4.545c-.103-.26-1.31-3.521-1.31-3.521-.028-.144-.129-.366-.472-.457L22.915.54H2.597c-.08.01-.16.018-.242.027-.344.09-.445.313-.473.457 0 0-1.208 3.262-1.31 3.52-.205.515-.008.73.31.844.292.103.907.154 1.191-.393.089-.17.28-.438.39-.596C2.993 3.64 4.06 2.353 5.01 2c.913-.338 2.311-.557 3.755-.557.178 0 .786.005.938.013 1.634.09 1.75.67 1.75 1.824v17.963c-.18 2.008-.306 2.548-1.69 2.548h-.167c-.323 0-.566.273-.566.633 0 .437.284.634.566.634l6.322-.005c.282 0 .566-.196.566-.632 0-.362-.243-.634-.566-.634h-.167c-1.385 0-1.435-.35-1.69-2.544V3.28c0-1.153.117-1.734 1.75-1.824.152-.008.76-.013.938-.013 1.444 0 2.843.22 3.755.557.95.353 2.015 1.64 2.545 2.4.111.157.303.424.391.595.284.547.9.496 1.19.393.32-.113.515-.329.312-.843"></path></g><path fill="#1d2023" d="M109.25 19.892c-.206-.526-.732-.517-1.114.067-.812 1.168-2.404 2.489-3.786 3.003-1.737.79-6.34 1.183-9.244 1.159-1.184 0-2.176-.202-2.693-.52-.228-.14-.75-.637-.641-3.027v-7.797l7.714.003c.84 0 1.213.2 1.6.525.608.513.953 1.337.953 2.184v.168c0 .322.272.566.634.566.436 0 .73-.284.73-.566l-.135-1.533a20.375 20.375 0 010-3.63l.136-1.532c0-.282-.295-.566-.731-.566-.362 0-.634.243-.634.566v.168c0 .85-.341 1.678-.954 2.19-.383.318-.752.514-1.584.514l-7.73.005V4.35c0-1.449.218-1.9.457-2.168.38-.376.932-.73 3.224-.73 2.273-.03 5.924.377 7.54.882 1.25.362 2.514 1.154 3.142 1.97.414.665 1.3.478 1.15-.34-.05-.208-.627-2.181-.702-2.444-.195-.68-.332-.98-.826-.98H87.293c-.345 0-.567.25-.567.633 0 .367.238.633.567.633h.267c.464 0 .885.062 1.138.388.28.358.37 1.032.37 2.161v16.887c0 1.093-.109 1.809-.379 2.175-.253.343-.687.37-1.129.37h-.301c-.345 0-.566.248-.566.633 0 .397.212.633.566.633h16.59c2.284 0 2.937-.296 3.879-1.762.522-.798.998-1.762 1.457-2.947.04-.163.112-.27.064-.452m7.707-4.235l4.259-11.023 4.543 11.023h-8.802zm16.32 8.13h-.166c-.805 0-1.342-.392-2.225-2.618L122.698.4a.583.583 0 00-1.021 0l-7.863 20.772c-.749 1.932-1.413 2.616-1.912 2.616h-.167c-.314 0-.532.26-.532.633 0 .467.275.633.532.633h4.115c.257 0 .531-.166.531-.633 0-.372-.218-.633-.53-.633h-.136c-.953 0-1.35-.149-1.35-.638 0-.416.094-.948.443-1.835l1.724-4.62h9.686l1.874 4.836c.304.769.47 1.192.47 1.586 0 .324-.077.671-1.006.671h-.1c-.369 0-.6.242-.6.633 0 .402.219.633.6.633h5.82c.258 0 .534-.166.534-.633 0-.372-.22-.633-.534-.633zm-63.414-11.91H66.11c-1.262-.036-1.57-.68-1.675-1.755l-.065-2.524v-3.19c0-1.846.229-2.943 2.482-2.943 5.581 0 9.179 1.213 9.179 5.663 0 2.9-2.66 4.749-6.17 4.749m13.816 11.809l-.024-.002a2.9 2.9 0 01-.38-.032c-.523-.058-1.188-.447-2.027-1.184-.624-.592-1.155-1.19-2.484-2.983-1.618-2.225-2.358-3.575-3.301-4.484-.958-.9-1.985-1.477-3.422-2.084 1.51-.112 2.536-.22 3.611-.773 2.035-1.052 3.25-2.649 3.25-5.016 0-2.28-1.166-4.332-3.046-5.358C74.24.91 72.454.543 69.875.543h-9.883c-.353 0-.6.26-.6.633 0 .355.264.632.6.632h.2c1.111 0 1.475.382 1.475 2.129v16.847c0 1.678-.048 2.537-.67 2.878-.258.144-.57.122-1.005.122h-.135c-.343 0-.564.25-.564.634 0 .396.21.632.564.632l6.324-.001c.257 0 .566-.167.566-.633 0-.373-.253-.633-.566-.633 0 0-.622.027-.86-.04-.253-.07-.524-.237-.644-.523-.216-.462-.304-1.155-.304-2.276l.063-8.13h1.206c3.154-.017 3.514-.052 4.377.412.937.54 1.818 1.81 3.173 3.495 1.398 1.738 2.452 3.252 4.061 5.087 1.229 1.355 2.644 2.542 3.604 3.021l.02.009a3.13 3.13 0 001.17.212h1.171c.5 0 1.034-.057 1.034-.732 0-.346-.22-.588-.574-.632"></path></g></svg>